<svg id="圖層_1" data-name="圖層 1" xmlns="http://www.w3.org/2000/svg" viewBox="0 0 223.01 106.75"><defs><style>.bg-color{fill:#efeeef;}.curve-color{fill:#efe425;}</style></defs><title>nav1</title><rect class="bg-color" width="223.01" height="106.75"/><path class="curve-color" d="M407.64,398.11c.22,1.9-.55,1.66.66.58-.07-.21-.09-.33-.13-.48A.74.74,0,0,1,407.64,398.11Z" transform="translate(-185.97 -368.36)"/><path class="curve-color" d="M408.17,398.21c.54-.16-.39-1.59,0,0Z" transform="translate(-185.97 -368.36)"/><path class="curve-color" d="M405.68,399.36l.68-1.72c-.18-1.12-.82-1.36-.6-2.18C405,396.4,405.22,397.52,405.68,399.36Z" transform="translate(-185.97 -368.36)"/><path class="curve-color" d="M405.08,403l.36-.73C405.36,401.75,405.26,401.58,405.08,403Z" transform="translate(-185.97 -368.36)"/><path class="curve-color" d="M406.19,400.68l-.75,1.54c.12.79.17,2.37.35-.56C405.76,403.11,405.88,401.72,406.19,400.68Z" transform="translate(-185.97 -368.36)"/><path class="curve-color" d="M406.66,401.42c.43,1.05,1,1.72.29,3.42C408.31,404.14,408,400.71,406.66,401.42Z" transform="translate(-185.97 -368.36)"/><path class="curve-color" d="M401.16,396.91c0,1,.29,2.77.37,4.1l.51-1.2A6.52,6.52,0,0,1,401.16,396.91Z" transform="translate(-185.97 -368.36)"/><path class="curve-color" d="M401.53,401l-.75,1.81C401.49,403,401.6,402.16,401.53,401Z" transform="translate(-185.97 -368.36)"/><polygon class="curve-color" points="219.11 40.02 220.33 36.24 218.86 40.08 219.11 40.02"/><polygon class="curve-color" points="212.16 28.48 212.56 26.06 211.83 29.72 212.16 28.48"/><path class="curve-color" d="M396.13,397.3c.29-2-.52-3.37-.19-4.6-.53.36-1,2.09-1.36,3.64C395,395.47,395.48,395.68,396.13,397.3Z" transform="translate(-185.97 -368.36)"/><path class="curve-color" d="M393.91,398.6a20.11,20.11,0,0,0,.67-2.26A8.52,8.52,0,0,0,393.91,398.6Z" transform="translate(-185.97 -368.36)"/><path class="curve-color" d="M399.41,402.33a8.44,8.44,0,0,0-.68-3l.37,2.92Z" transform="translate(-185.97 -368.36)"/><path class="curve-color" d="M399.11,402.38v-.09a6.73,6.73,0,0,1-.68-.15C398.5,402.17,398.71,402.23,399.11,402.38Z" transform="translate(-185.97 -368.36)"/><path class="curve-color" d="M399.49,402.34h-.08C399.45,402.62,399.47,402.71,399.49,402.34Z" transform="translate(-185.97 -368.36)"/><path class="curve-color" d="M402.93,405.77c-.43,1.65-1.38,3.42-.38,5.91C402.85,409.66,402.28,408.25,402.93,405.77Z" transform="translate(-185.97 -368.36)"/><path class="curve-color" d="M400,406l.86.65a9.92,9.92,0,0,1,0-2.72Z" transform="translate(-185.97 -368.36)"/><polygon class="curve-color" points="213.58 38.57 213.98 37.64 213.66 37.39 213.58 38.57"/><path class="curve-color" d="M395.39,401.31c-.34,1.29-.74,1.4-1.18,1.61a2,2,0,0,0,1.47.86C395.73,402.85,395.91,401.2,395.39,401.31Z" transform="translate(-185.97 -368.36)"/><path class="curve-color" d="M397.2,402.09c0,.07-.05.1-.07.17C397.18,402.51,397.22,402.59,397.2,402.09Z" transform="translate(-185.97 -368.36)"/><path class="curve-color" d="M389.76,403l.08.53V403Z" transform="translate(-185.97 -368.36)"/><path class="curve-color" d="M395.77,404.32c.37.56.58-.16.77-1.07a1.44,1.44,0,0,1-.86.53C395.65,404.19,395.65,404.46,395.77,404.32Z" transform="translate(-185.97 -368.36)"/><path class="curve-color" d="M392.69,400a12.33,12.33,0,0,0,.65,1.6C393.14,400.67,392.75,399.23,392.69,400Z" transform="translate(-185.97 -368.36)"/><path class="curve-color" d="M397,401.45a.89.89,0,0,1,.05-.13C396.91,400.69,396.93,401,397,401.45Z" transform="translate(-185.97 -368.36)"/><path class="curve-color" d="M397,401.45a11.21,11.21,0,0,0-.45,1.8,3,3,0,0,0,.59-1C397.08,402.05,397,401.74,397,401.45Z" transform="translate(-185.97 -368.36)"/><path class="curve-color" d="M388.64,421.79c0-2.72,1-5.24,1.83-2.34.8-2,.14-11-.63-16a7.49,7.49,0,0,1-.81,3.89c.31,1.48,1.9,3.45,1.22,5.92-1.09,1.41-.92-.95-1.48-2.38.5,3.38-1.36,4.94-1.06,9.91l1-1.76C388.7,419.84,388.35,421.08,388.64,421.79Z" transform="translate(-185.97 -368.36)"/><path class="curve-color" d="M391.44,403.75l.34-.34c-.4-.47-.7-1.55-1.24-3.67a8.69,8.69,0,0,0-.69,3.24l1.7.37Z" transform="translate(-185.97 -368.36)"/><path class="curve-color" d="M393.32,403.38c-.22,3-1,4.23-.48,7.42,1-.22.67-2.48,1.26-3.77-1.62.76.44-1.66-.76-3.31a1.83,1.83,0,0,1,.87-.8,7,7,0,0,1-.87-1.33,1.49,1.49,0,0,1,0,.18h0v.05c.08.37.1.59,0,.38a.1.1,0,0,1,0,.06c0,.41,0,.77-.06,1.12-.48-.6-.09-.77.06-1.12,0-.14,0-.29,0-.44v0l-1.6,1.64C392.13,403.82,392.56,403.73,393.32,403.38Z" transform="translate(-185.97 -368.36)"/><path class="curve-color" d="M401.81,418a3.41,3.41,0,0,1-.07-.68C401.64,417.72,401.61,418,401.81,418Z" transform="translate(-185.97 -368.36)"/><path class="curve-color" d="M401.09,416.27c.12-.41.19-1.59.59-1.3.35.88,0,1.42.06,2.39a4.38,4.38,0,0,0,0-3.56l-.1.41a15.64,15.64,0,0,1-1.5-5.08A70.76,70.76,0,0,0,401.09,416.27Z" transform="translate(-185.97 -368.36)"/><path class="curve-color" d="M397.16,410.58l-1.34,1.48.74,2.55-.07-1.54C397.28,413.66,397.08,411.77,397.16,410.58Z" transform="translate(-185.97 -368.36)"/><polygon class="curve-color" points="203.62 33.13 203.76 30.01 203.03 34.42 203.62 33.13"/><polygon class="curve-color" points="201.86 33.52 201.9 30.8 201.45 32.45 201.86 33.52"/><path class="curve-color" d="M286.46,433.25,286,434A2.24,2.24,0,0,0,286.46,433.25Z" transform="translate(-185.97 -368.36)"/><path class="curve-color" d="M289.4,433.6l.15-1.32C289.37,433,289.28,433.54,289.4,433.6Z" transform="translate(-185.97 -368.36)"/><path class="curve-color" d="M344.52,402c-.54-2.54-1.11-6.49-1.09-3.43l.12,3C344,401.05,344.27,401.39,344.52,402Z" transform="translate(-185.97 -368.36)"/><path class="curve-color" d="M314.18,419c.05.29.09.6.14.9.18-1,.35-2,.5-2.82C314.63,417.61,314.41,418.26,314.18,419Z" transform="translate(-185.97 -368.36)"/><path class="curve-color" d="M313.29,431.23l-.71-1.94A7.67,7.67,0,0,0,313.29,431.23Z" transform="translate(-185.97 -368.36)"/><path class="curve-color" d="M270.15,435.4l-.68,3C270.22,438.42,270,436.88,270.15,435.4Z" transform="translate(-185.97 -368.36)"/><path class="curve-color" d="M369.77,403.07c-.5-1.16-.9-1.65-1.25-1.79C369.12,403,369.61,405.54,369.77,403.07Z" transform="translate(-185.97 -368.36)"/><path class="curve-color" d="M289.38,401.79a4.25,4.25,0,0,0-.44,1.78A3.26,3.26,0,0,0,289.38,401.79Z" transform="translate(-185.97 -368.36)"/><path class="curve-color" d="M367.08,401.28a6.93,6.93,0,0,0,.26.7c.37-.5.73-.9,1.18-.7C368.08,400,367.57,399.22,367.08,401.28Z" transform="translate(-185.97 -368.36)"/><path class="curve-color" d="M212,427.86a2.7,2.7,0,0,1-.09-.36C211.88,427.9,211.94,427.92,212,427.86Z" transform="translate(-185.97 -368.36)"/><path class="curve-color" d="M198.61,396.14a1.13,1.13,0,0,1,.71-.15C199.22,395.78,199,395.77,198.61,396.14Z" transform="translate(-185.97 -368.36)"/><path class="curve-color" d="M380.73,400.65c.37-.19,0-.33,0,0Z" transform="translate(-185.97 -368.36)"/><path class="curve-color" d="M382.63,412.4a6.87,6.87,0,0,0-.13,1.45A8.61,8.61,0,0,1,382.63,412.4Z" transform="translate(-185.97 -368.36)"/><path class="curve-color" d="M363.25,419.79h0C363.33,420.37,363.31,420.26,363.25,419.79Z" transform="translate(-185.97 -368.36)"/><path class="curve-color" d="M381.3,402a3.4,3.4,0,0,0-.48-.88A3.15,3.15,0,0,0,381.3,402Z" transform="translate(-185.97 -368.36)"/><path class="curve-color" d="M381.21,400.59a3.4,3.4,0,0,0,.33.29C381.59,400.38,381.54,400.07,381.21,400.59Z" transform="translate(-185.97 -368.36)"/><path class="curve-color" d="M380.21,400.82c.21-.05.41.09.61.3a.94.94,0,0,1-.09-.47A2.84,2.84,0,0,1,380.21,400.82Z" transform="translate(-185.97 -368.36)"/><path class="curve-color" d="M243.92,422.93c0-.09,0-.16-.06-.28C243.37,423.85,243.56,423.66,243.92,422.93Z" transform="translate(-185.97 -368.36)"/><path class="curve-color" d="M334,432.73l0-.15-.05-.1Z" transform="translate(-185.97 -368.36)"/><path class="curve-color" d="M332.59,434.9c.68-3.68,1-3.22,1.42-2.42l-.24-8.59Z" transform="translate(-185.97 -368.36)"/><path class="curve-color" d="M279.35,433.7l.8,2.72c-1.43,4.33-2.19,2.76-1.51,6.57.71-9.29,3.83-.74,4.51-10l.52,2c-.17-.1-.24.45-.41.34,1,4.53,1.31-6.66,2.82-5.25a3.7,3.7,0,0,1,.38,3.2l1.37-2.23c.35.2.17,1.81-.18,1.61l1.93-.63,0,.28c.34-1.45,1.07-3.67,1.42-4.61.41,1.36-.29,1-.23,2.14l1.16-2.19c.3,2.43-.69,4.72-1.39,4.33.47,9.34,1-2.28,2.8,3.24l-1.05,1.13c.36,5.31,1.24,3.44,2.19,6.78-.18-1.73-1.81-8.4-.56-10.66.29.72.69,1.07,1.4-.77-.17,3.31.47,2.52,1.23,2.37l-.27,4.38c.87-1.23.92-3.46,1.49-5.41.88.48.9,3.88,1,6.75,1.42.77-.73-5.49,1-6.23,1.12,1.73,2,0,3.6-2.57.76,1.55-.27,2.67,0,3.94l.9-3.46c.18.09.07,1.16,0,1.7.69-1.32.25-4.37,1.28-5.52.47-4.81,1.71,7.15,3.16,1.71.25,1.26-.25,2.68-.23,4.38a28.94,28.94,0,0,0,3.1-7.35l1.05,2.93c-.72-3.33.53-7.18,1.6-10.34-.24-1.61-.44-3-.59-3.68L315.2,413a14.54,14.54,0,0,1-.38,4c.12-.36.23-.72.32-1,.48,1.65.11,4.16-.38,6.6-.14-.91-.29-1.83-.44-2.73a50.39,50.39,0,0,0-1,8.16,2.77,2.77,0,0,1,.55-1.17,8.4,8.4,0,0,0-.19,1.81c0,.46.24-.5.53-1.61l.16,4.9.16-1.94,1.89,3.14c1.62-4.87,3.11-12.06,5.44-14-.68,3.57-.32,5.85-.49,10.1-.47-4.51-1.83,1.84-3,.88.6.5.4,2.52.22,3.22l2.24-4c-.16,3.48.36,2.62.86,4.07-.18-6.88,1.72-4.53,2.64-6.61,0,2.31-.3,4.66-1.32,4.07,1,5.2,1.74-8,2.73-3.59-.26.05-.38-.31-.52.85.66-2,2.06-.36,1.66,1.64l-.25,0c1.66.86,5.15.19,5.55-5.63,0,.76-.4,7-.54,8.2l3.51-19.53c-.39,5,.34,17-1.14,19.74.39.73.87,1.58,1.76-.17-.26-.72-.51-7.26-.12-7.71.89,5.6.64,3,1.8,7.78-.39-1.08.25-8.93.89-8.67-.13,1.18-.12,7.76-.37,8.57l1.78-7.68c-.43,1.38-.21,6.54.11,8.72-.13-1.51,1.4.17,1.85-.59l-.65-1.8c1.81,1.2,2-10.81,3.81-10.37-.24,1.59-.72,9.8.19,10.79.5-3.95,2.19-19,3.82-22l.27,2.26,1.25-2.55c-.83,5.94-3.17,18.4-4.43,23.24.65,1.81.15,2.67,1.18,2.49.33,2.12-.62,3.2-.92,3.32l2.38,1.41c0-4.62,1.9-4.6,1.86-8.44l-2.67,4.73c0-4.61,1.7-13,3.37-12.22.41,1.84-.43,8.2-.42,9.74.25-1.58,1.65-3,1.79-1.89l-.75,2.46c.93,1.74,1.62-6.1,2.7-1.68.38.3,1.1,5.94,1.2,3.21a206.87,206.87,0,0,1-.07-25.49,52,52,0,0,1,2.4,7.66c.6,4.13-1.05,9.82-.54,13.37a15.59,15.59,0,0,1,.56-3.31c.4,1.08-.21,3.9.69,3.34.19-4.68,1.81.41.45-3.95.88-1.33.92,1,1.95.78-.31-3,1-10.28,1.85-11.6a21.68,21.68,0,0,0,.22,3.44c1.77.45,2.72,2.55,4.38,2.6.15,1.13.95,2.5.6,4.52.24-.83.46-2.42,1-2.53,1,4-1.15.63-.4,5.49.07-2.72,1.33-3.75,2.06-5.45-.22-4.2-1.68-.8-2.41.89,0-5.79,1.28-11.85,3-14.53,1.37-1.43.6,3.75.83,2.92,2.58,1,2.17-10.11,4.31-5.93.86,3.69.07,7.34.26,10-1.11,1.39-1.72-2.34-2.48-2.19l.94,1.74c-.35,1.22-1.1,2.16-1.51,1.09.72,3.31,4.36.65,6.37,3.68.35-1.24.95-2.53.66-4l-.63.53c-.6-3,1.16-4.13.35-5.51.83-2.1,1.75-5.4,2.94-3.72l.26,4.2c0-1.23-.79-2.5-1.12-1.22.48-1.86,1.87,5.68,2.36.17l-.85-2.91C385,407.5,386,403,387,404.34c-.52-4.14-.24.48-1-4.37.7,6-2.67-.23-1.58,6.11-.81-5.63-1.34-2.37-2.37-7.17,0,1.38.37,2.64-.51,2a11.63,11.63,0,0,1-.18,1.23.6.6,0,0,1-.06-.11l.05.16c0,.21,0,.26,0,.06a9.53,9.53,0,0,1,.46,2.11c-.41,3.19-1.81,3.1-2.28,4.75-.52-.65.21-1.59-.08-3.07l-.69,2.47c-.09-3.08-1.41-5.12-.19-6.92l-1.11-.13c-.65-1.73-1.54-2.42-2.09-1.13-.52-.66-1.3,3.42-.85,1l-1.73,1.91,0-.77c-1.7-.39-3.51,5.1-5.45-.46-.58.78-1.17,1.73-2.13.86l-.18-2.67c-.74.94-2.19-2.68-2.52.09-.75-7.17-3.56-1.59-4.84-2.88l-.08,3.48c-.89-.2-1.76.77-2.88,2.16l0,3.08c-1,2.51-2.43-2.21-3.94-1.91.12-1.18.49-.87.76-.15-1.71-7-3.89,5-5.45-.1-.43,1.11-.72.72-1-.06,0,0,.07-.06.1-.16a.22.22,0,0,0-.16,0c-.17-.53-.35-1.15-.54-1.65a9.4,9.4,0,0,0,.45,1.66c-.32.06-.8.43-1.29,1.19l-.13-3.3s-.07,0-.11.09c-.44-1.23-.4,1.55-.2,4a10,10,0,0,0-.66,2c-.27-5.33-1.27,1.77-1.66-3.92-.38,2.77-2.4,2-2.78,7.87,0-.76-.13-1.13.12-1.17-.51-.67-1-1.35-1.52.29l-.13-4.21-1.27,5.62a12.66,12.66,0,0,1-.12-7.28c-1.78,4.92-1.39,1.83-2.94,6.72l.14-2.72c-.5.09-1.41,3.7-1.66,1.45-1-5.19-5.58-.87-8.33-5.75.3,8-1.23-3.62-1.55,2.56-.1-1.9-.47-3,.05-4.6-1.54,1.8-2.11-3.08-3.31,2.1-.1-1.91.41-2.76.3-3.89-.13.41-.53,1.63-.64.49a4.72,4.72,0,0,1,.54-2.39c-1.52.26-1.89,6.08-2.2,11.54-.67-2.62-1.07-2.27-1.76,1.3-.2-1.8-.57-3.69.39-4.3-.52-.28-3.12-2.74-3.36,1.64-.12-1.12-.72-.36-.88.14-1.18-.3-1.27-.7-2.45-.33l.29.73c-.69,5.26-1,1.13-2,1.72l.05-.54c-2-3.91-1,1.78-3-2.67l0,3.29c-.53,7.06-1.7-4.26-3.06-1.62l.36,1.9c-.8,2.39-1.42-9.7-2-10.61-.12-.62.28-1,.5-1.42-1.55-4.26-.44,4.29-1.81,5.23-.12-2.33.61-5.89-.25-6.36-.34-1.91-3,7.41-3.93,2.89.17,1.8.34,3.61-.34,4.91-1,.59-2.17-6.9-3.33-1.32a6.22,6.22,0,0,1-.09-1.41c-.8,1.42-2.46,2.29-3.07,5.32,0-11.39-4.8,5.25-4.16-5.21l-2.24.43.13-1.06c-1.37-.77-2,1.69-2.68,4.17A4.89,4.89,0,0,1,277,405c-1.92-2.25-2.15-1.82-4.23,3.27l.05-3.4c-.61,1.94-2.61-5.52-4.9-1.7a6.2,6.2,0,0,1,.32-1.51c-2.56,3.84-4.73-9.78-6.48,2.49L260,407.06c1.88,1.11-.69,5.33,0,7.45-.83.66-1.7-3.88-.71-4.44l.1.63c.83-6.41-2.25-2.47-1.86-6.85-3.84,0-7.27-3.81-10.81-4.41v5l-1.22-.4c-.23-1.19-.1-3.94.76-3.66-.22-2.88-1.69,2.24-1.81,3.33-1.56-2.18,1.18-5.77.66-5.94l-.75.31.11.6c-.76,2-1,4.15-2,3.81-.59-1.06-.08-3.11-.33-3.33,0-.35,0-.53-.39-.18l-1.53-.56.28,4c-.87,1.88-1.46-.34-1.14,4.2-.44-7-5.63-3-6.09-5.21-1.24,2.78-2.2,2.63-3.36,2.17.21.85,0,5.3-1,4.66,1.26-9.11-1.51-4.15-1.69-10.81.31,4.43-3,.79-2.47,7.1-.79-.83.29-3.43-.15-5.65-2.4,3.36-4.25-2.76-6.88-1.83-.17,1.2.06,3.08-.67,4.81l-.69-6.14c-.56.53-1.2,6.87-1.66,2.61,0,1,0,2.57-.33,2.91-2.15-3.19-4.8-2.25-7.39-2s-5.13-.12-7-5.9c.41,2.4-.07,2.58-.6,2.6.27.6-.35,3-.48,4.59l-1.56-4.75c-.92,4.46-2.28,0-3,4.32l.76-.69c-1.5,5-.12,11.44-1,18,1.69-5.66,1.63,8.87,4.25.79.21,1.37-.55,2.06-.54,3.6.75-2.75,1.32-3.27,2.11-1.91l-.19.68c2.7-.38,3.51,2.52,6.26,4.68L206,422c.59.5.61,1.53.82,2.37,1.27-4.82-1.76-.46-.49-5.79.11,6.66,4.45.57,4.21,8.1,1,.15.12-3.77,1.09-3.62l0,2.05.53-2.58c.59.5.64,3.06.49,4.78-.14-.23-.5.43-.68.55.58,2.47,2.43-.56,2.64.25l-.81-1.34c2.86-1.61,5.85,1.4,8.84-2.48l0-1.54c2.24-2.63,1.41,1.83,3.69.73l-.11.36c.58-1.48,1.23-2.19,1.8-2-.72,1.73.69,3.57-.21,5.48,2.42-2.83,1.28-2.28,3.23-7.82l.08,2.57c.7-2.25.85-3.45,2-4-1.08,2.09.33,3.92-.93,6.7,1.76,5.77,3.88-5.28,4.18,2.91,1.67-6.92-1.61-4.06-.89-5.51-.28-2.34,1.33-5.17,2-4.4.7.22.41,9.07,2.25,9.1-.18-.05-.24.48-.42.43.53,1.85,1.55-2.3,2.13.68.84-4.2,1.07.34,1.67-5.06l-1.77,1.1c1.07-1.33,2.49-7.58,3.78-4.37a14.92,14.92,0,0,1-1.18,3.24c.32,1.64,1-1,1.3.7-.6,5.41-2.13,1-3.5,5,.29,2.33,2.26-3.75,1.24,2.07,1.37-7.4,1.72,1.09,3.44-4.49l-.36,3.24c.24-.5.77-2,1.13-1.88l-1,4.15c1.3-3.5,1.67,3.31,2.8,1.43-2-.06-.13-3.95-.79-6.38,2.83-4.15.73,8.59,3.64,7.26-.41.42-1.25-2.06-.55-3.52a8.51,8.51,0,0,1,1.27,3.74c1.9-.54,0-3.36.92-5.3.32,4,1-1.54,1.93-2.74l-.25,3.3c1.93,2.28,1.09-6.83,2.77-4.13l-1.14,4.51,1.07-1.1-.49,3.73c1.28-2.7,1.56-1.95,2.53-.82-.07-2.34.58-6,1.52-6,.48,2-.59,3.11.76,2.74-.45,2-1,4.61-1.31,1.53-.14,1.07-.45,2.05-.59,3.1.52,2.31,1.68.65,2.16.66A1.14,1.14,0,0,1,262,433l2.24-4.44a6.35,6.35,0,0,1-.41,3.2c.42-.33.79-1.83,1.38-2.08-.34,2.67-.5,5.45-1.4,6.65l2-2.85c0,1.18.71,3.27.4,4.24.91,1.65,2.84-5,4-2.87a3,3,0,0,1,.59-1.36c1.21.69,2.12,4.06,3.85.48l.53,4.87c1.24-1-.75-6.14,1.31-7.83,1.47-1.44.25,4.14.65,5.52.84-2.39,2.33-7.26,3.35-3.27C280.05,434.09,279.76,433.36,279.35,433.7Zm14.52-1.32c-.32.68-1,2.79-1.09.83C293.3,429.44,293.45,431.26,293.87,432.38Zm22.18-7c-.25,1.09-.55.53-.86-.73C315.46,424.39,315.75,424.52,316.05,425.38Zm60.59-22c0,.07,0,.11,0,.17C376,402.24,376.22,402.75,376.64,403.36Zm1.27,1.44a3.39,3.39,0,0,0,.06-1.38c-.08.84-.37.89-.69.66C377.37,405,377.54,405.54,377.91,404.8Zm-136.08-4.41.17.89C241.36,402.18,241.59,401.34,241.83,400.39Z" transform="translate(-185.97 -368.36)"/><path class="curve-color" d="M313.4,429.81a17.54,17.54,0,0,1,0-1.8A3.26,3.26,0,0,0,313.4,429.81Z" transform="translate(-185.97 -368.36)"/><path class="curve-color" d="M270.28,434.85s0,0,0-.05c0,.2-.06.4-.09.6Z" transform="translate(-185.97 -368.36)"/><path class="curve-color" d="M358,432.8a5.26,5.26,0,0,1-.5-1.71C357.51,431.9,357.62,432.58,358,432.8Z" transform="translate(-185.97 -368.36)"/><path class="curve-color" d="M384.58,399.12l-.8.87c.39-.17.54.55.74,1.08C384.49,400.29,384.33,399.18,384.58,399.12Z" transform="translate(-185.97 -368.36)"/><path class="curve-color" d="M391.89,419.53c.11-.41.25,0,.36-.46l-.05-1.54C391.69,417.64,391.35,418.88,391.89,419.53Z" transform="translate(-185.97 -368.36)"/><path class="curve-color" d="M385.44,410.11c.09,2.78.59,1.83,1.16,1.31,0,0-.07,0-.11,0C386.62,407.52,386,408.82,385.44,410.11Z" transform="translate(-185.97 -368.36)"/><path class="curve-color" d="M386.73,411.33c.17-.14.35-.21.52-.08C387.3,409.69,387,410.93,386.73,411.33Z" transform="translate(-185.97 -368.36)"/><path class="curve-color" d="M379.51,403c.28.71.15-3.56.31-2.43C380.1,397,378.05,404.83,379.51,403Z" transform="translate(-185.97 -368.36)"/><polygon class="curve-color" points="200.02 50.91 199.78 47.48 199.49 50.25 200.02 50.91"/><path class="curve-color" d="M381.44,416.8l.92.94a2.08,2.08,0,0,1,.24-1.18C382,416.46,381.41,415.78,381.44,416.8Z" transform="translate(-185.97 -368.36)"/><path class="curve-color" d="M382.6,416.56c.29.07.57,0,.73-.57A1.11,1.11,0,0,0,382.6,416.56Z" transform="translate(-185.97 -368.36)"/><polygon class="curve-color" points="198.77 51.96 198.5 51.24 197.84 51 198.77 51.96"/><path class="curve-color" d="M371.58,416.16l-1,1c-.1,1.17.17,1.9.55,1.43A4.53,4.53,0,0,0,371.58,416.16Z" transform="translate(-185.97 -368.36)"/><path class="curve-color" d="M374.63,425.57a11.62,11.62,0,0,1-.45-2.61l0,4.26Z" transform="translate(-185.97 -368.36)"/><path class="curve-color" d="M371.7,426.57c-.1,1.18-1.47,3.39-.19,3.12C371.61,428.52,372.62,427.54,371.7,426.57Z" transform="translate(-185.97 -368.36)"/><polygon class="curve-color" points="170.61 52.74 170.87 52.69 170.9 45.71 170.61 52.74"/><path class="curve-color" d="M343,437.62c1.17,1.7.36-4.3,1.41-2.19.31-1.65-.86-1.72-.54-3.14C343.06,434,342.7,433,343,437.62Z" transform="translate(-185.97 -368.36)"/><path class="curve-color" d="M343.82,432.29a10.53,10.53,0,0,0,.39-1.06A4,4,0,0,0,343.82,432.29Z" transform="translate(-185.97 -368.36)"/><polygon class="curve-color" points="10.34 23.74 9.77 22.2 9.97 24.59 10.34 23.74"/><path class="curve-color" d="M194.25,397.07l.35-4.44-.93,3.95C193.86,396.4,194.24,396.06,194.25,397.07Z" transform="translate(-185.97 -368.36)"/><path class="curve-color" d="M295.56,441.44l.11-1.07c-.06-1.16-.24-1.26-.59-1.46Z" transform="translate(-185.97 -368.36)"/><polygon class="curve-color" points="99.27 69.18 99.45 69.28 99.34 65.25 99.27 69.18"/><path class="curve-color" d="M276.12,442.16c.35.19.83-.69,1.18-.5C276.47,442.35,276.34,437.14,276.12,442.16Z" transform="translate(-185.97 -368.36)"/></svg>