<svg id="圖層_1" data-name="圖層 1" xmlns="http://www.w3.org/2000/svg" viewBox="0 0 223.01 106.75"><defs><style>.bg-color{fill:#efeeef;}.curve-color{fill:#efe425;}</style></defs><title>nav2</title><rect class="bg-color" width="223.01" height="106.75"/><path class="curve-color" d="M363.08,187.82c.27.19-.62-2.54-.74-3A11.41,11.41,0,0,0,363.08,187.82Z" transform="translate(-181.28 -167.84)"/><polygon class="curve-color" points="180.28 27.12 180.03 25.97 180.28 28.88 180.28 27.12"/><path class="curve-color" d="M358.38,195.74c1.48,4.68,1-1.07,1.95.47l.37,1.06-.74-3.88C359.45,194.17,359.19,196.94,358.38,195.74Z" transform="translate(-181.28 -167.84)"/><path class="curve-color" d="M354.31,185.87c.52,1.83,0,1.69.5.49-.09-.23-.12-.32-.18-.46C354.57,186,354.49,186,354.31,185.87Z" transform="translate(-181.28 -167.84)"/><path class="curve-color" d="M354.63,185.9c.28-.21-.56-1.5,0,0Z" transform="translate(-181.28 -167.84)"/><path class="curve-color" d="M353.42,187.29l0-1.74c-.33-1.08-.75-1.26-.79-2.08C352.45,184.46,352.77,185.53,353.42,187.29Z" transform="translate(-181.28 -167.84)"/><path class="curve-color" d="M353.78,190.86l.07-.75C353.71,189.66,353.62,189.51,353.78,190.86Z" transform="translate(-181.28 -167.84)"/><path class="curve-color" d="M354,188.54l-.14,1.57c.23.76.59,2.31.1-.58C354.23,191,354,189.58,354,188.54Z" transform="translate(-181.28 -167.84)"/><path class="curve-color" d="M354.42,189.21a5.51,5.51,0,0,1,.88,3.32C356,191.68,355.08,188.38,354.42,189.21Z" transform="translate(-181.28 -167.84)"/><path class="curve-color" d="M359.42,200.71l.68,1.3-.1-1.67C360.05,201.17,359,199.22,359.42,200.71Z" transform="translate(-181.28 -167.84)"/><path class="curve-color" d="M350.28,185.33c.18,1,.7,2.69,1,4l.07-1.24A9.8,9.8,0,0,1,350.28,185.33Z" transform="translate(-181.28 -167.84)"/><path class="curve-color" d="M351.28,189.32l-.12,1.84C351.63,191.29,351.53,190.44,351.28,189.32Z" transform="translate(-181.28 -167.84)"/><polygon class="curve-color" points="173.59 28.34 173.58 24.52 173.45 28.42 173.59 28.34"/><polygon class="curve-color" points="167.23 17.7 167.03 15.28 167.25 18.95 167.23 17.7"/><path class="curve-color" d="M347.42,186.19c-.17-2-.87-3.27-.89-4.52a13.66,13.66,0,0,0-.17,3.72C346.47,184.49,346.77,184.66,347.42,186.19Z" transform="translate(-181.28 -167.84)"/><path class="curve-color" d="M346.34,187.69c.05-.5,0-1.37,0-2.3A13.46,13.46,0,0,0,346.34,187.69Z" transform="translate(-181.28 -167.84)"/><path class="curve-color" d="M350.25,190.82a14.39,14.39,0,0,0-.94-2.85l.74,2.84Z" transform="translate(-181.28 -167.84)"/><path class="curve-color" d="M350.08,190.9l0-.09a2.18,2.18,0,0,1-.43-.08Z" transform="translate(-181.28 -167.84)"/><path class="curve-color" d="M350.3,190.82h-.05C350.32,191.1,350.35,191.19,350.3,190.82Z" transform="translate(-181.28 -167.84)"/><path class="curve-color" d="M353,193.84c.05,1.66-.21,3.51.9,5.84C353.72,197.67,353.1,196.35,353,193.84Z" transform="translate(-181.28 -167.84)"/><path class="curve-color" d="M351.24,194.37l.65.55a16.17,16.17,0,0,1-.5-2.67Z" transform="translate(-181.28 -167.84)"/><polygon class="curve-color" points="169.89 27.49 169.96 26.53 169.72 26.32 169.89 27.49"/><path class="curve-color" d="M347.66,190.22c0,1.3-.21,1.45-.44,1.71.38.51.74.75,1,.69C348.12,191.7,348,190.06,347.66,190.22Z" transform="translate(-181.28 -167.84)"/><path class="curve-color" d="M348.88,190.81l0,.17C348.94,191.22,349,191.29,348.88,190.81Z" transform="translate(-181.28 -167.84)"/><path class="curve-color" d="M344.5,192.33l.13.52-.07-.5Z" transform="translate(-181.28 -167.84)"/><path class="curve-color" d="M348.39,193.15c.32.51.33-.22.29-1.14-.11.33-.25.55-.43.61C348.3,193,348.35,193.3,348.39,193.15Z" transform="translate(-181.28 -167.84)"/><path class="curve-color" d="M345.84,189.17a15.79,15.79,0,0,0,.64,1.53C346.22,189.81,345.75,188.41,345.84,189.17Z" transform="translate(-181.28 -167.84)"/><path class="curve-color" d="M348.64,190.2a.57.57,0,0,1,0-.14C348.46,189.46,348.53,189.76,348.64,190.2Z" transform="translate(-181.28 -167.84)"/><path class="curve-color" d="M348.64,190.2c0,.43,0,1.16,0,1.81a3.84,3.84,0,0,0,.18-1C348.8,190.78,348.71,190.48,348.64,190.2Z" transform="translate(-181.28 -167.84)"/><path class="curve-color" d="M346.53,211.05c-.37-2.69-.13-5.27.88-2.47.22-2.09-1.57-10.86-2.78-15.73a11.19,11.19,0,0,1,.06,3.92c.41,1.44,1.72,3.25,1.66,5.75-.5,1.48-.74-.87-1.3-2.24.81,3.3-.17,5,.72,9.9l.39-1.82A14.42,14.42,0,0,0,346.53,211.05Z" transform="translate(-181.28 -167.84)"/><path class="curve-color" d="M345.65,193l.16-.36a16.45,16.45,0,0,1-1.32-3.53,13.54,13.54,0,0,0,.07,3.26l1.1.23Z" transform="translate(-181.28 -167.84)"/><path class="curve-color" d="M346.76,192.47c.33,2.95,0,4.26.87,7.37.61-.3,0-2.52.19-3.85-.88.93,0-1.68-1-3.19a1.5,1.5,0,0,1,.4-.87,7.64,7.64,0,0,1-.74-1.23l.06.18h0v0c.1.36.15.58.07.37a.35.35,0,0,1,0,.07c.06.4.1.76.14,1.11-.39-.56-.17-.75-.14-1.11l-.06-.44v0l-.73,1.74C346.09,193,346.34,192.88,346.76,192.47Z" transform="translate(-181.28 -167.84)"/><path class="curve-color" d="M354.65,206a4,4,0,0,1-.17-.66C354.48,205.72,354.5,206,354.65,206Z" transform="translate(-181.28 -167.84)"/><path class="curve-color" d="M353.85,204.35c0-.42-.17-1.59.14-1.34a9.52,9.52,0,0,1,.49,2.34,6.59,6.59,0,0,0-.66-3.5v.41a21.92,21.92,0,0,1-1.88-4.83C352.57,200,353.05,201.85,353.85,204.35Z" transform="translate(-181.28 -167.84)"/><path class="curve-color" d="M350.32,199.17l-.6,1.6.9,2.43-.3-1.5C350.92,202.19,350.47,200.35,350.32,199.17Z" transform="translate(-181.28 -167.84)"/><polygon class="curve-color" points="162.9 23.05 162.52 19.95 162.73 24.38 162.9 23.05"/><polygon class="curve-color" points="161.88 23.58 161.51 20.89 161.48 22.55 161.88 23.58"/><path class="curve-color" d="M278.6,227.84l-.26.77A3,3,0,0,0,278.6,227.84Z" transform="translate(-181.28 -167.84)"/><path class="curve-color" d="M280.53,228l0-1.34A3.7,3.7,0,0,0,280.53,228Z" transform="translate(-181.28 -167.84)"/><path class="curve-color" d="M315.94,194.09c-.47-2.52-1-6.44-.87-3.39l.22,3C315.53,193.13,315.74,193.46,315.94,194.09Z" transform="translate(-181.28 -167.84)"/><path class="curve-color" d="M296.51,212.2c0,.29.07.6.11.9.1-1,.18-2,.26-2.84C296.76,210.85,296.64,211.51,296.51,212.2Z" transform="translate(-181.28 -167.84)"/><path class="curve-color" d="M296.28,224.52l-.53-1.92A10.07,10.07,0,0,0,296.28,224.52Z" transform="translate(-181.28 -167.84)"/><path class="curve-color" d="M268.19,231.1l-.25,3C268.41,234.11,268.18,232.59,268.19,231.1Z" transform="translate(-181.28 -167.84)"/><path class="curve-color" d="M332.11,193.86c-.43-1.13-.72-1.59-.95-1.71C331.69,193.82,332.24,196.33,332.11,193.86Z" transform="translate(-181.28 -167.84)"/><path class="curve-color" d="M279.26,196.26a5.76,5.76,0,0,0-.23,1.81A4.92,4.92,0,0,0,279.26,196.26Z" transform="translate(-181.28 -167.84)"/><path class="curve-color" d="M330.26,192.25c.08.29.15.44.23.68.18-.52.37-.94.67-.78C330.77,190.91,330.39,190.16,330.26,192.25Z" transform="translate(-181.28 -167.84)"/><path class="curve-color" d="M231.77,231.18c0-.13-.08-.19-.13-.34C231.69,231.24,231.73,231.25,231.77,231.18Z" transform="translate(-181.28 -167.84)"/><path class="curve-color" d="M215.49,203.6c.07-.21.26-.25.44-.33C215.8,203.09,215.65,203.14,215.49,203.6Z" transform="translate(-181.28 -167.84)"/><path class="curve-color" d="M338.66,190.76c.2-.23,0-.33,0,0Z" transform="translate(-181.28 -167.84)"/><path class="curve-color" d="M341.31,202.26a10.28,10.28,0,0,0,.1,1.45A13.33,13.33,0,0,1,341.31,202.26Z" transform="translate(-181.28 -167.84)"/><path class="curve-color" d="M329.33,210.92h0C329.43,211.48,329.41,211.37,329.33,210.92Z" transform="translate(-181.28 -167.84)"/><path class="curve-color" d="M339.18,192.05a4,4,0,0,0-.41-.83A4.44,4.44,0,0,0,339.18,192.05Z" transform="translate(-181.28 -167.84)"/><path class="curve-color" d="M339,190.66a3.47,3.47,0,0,0,.24.26C339.15,190.42,339.09,190.12,339,190.66Z" transform="translate(-181.28 -167.84)"/><path class="curve-color" d="M338.37,191c.12-.06.26.06.4.26a1.62,1.62,0,0,1-.11-.46A1.16,1.16,0,0,1,338.37,191Z" transform="translate(-181.28 -167.84)"/><path class="curve-color" d="M250.46,221.3l-.07-.28C250.22,222.28,250.31,222.07,250.46,221.3Z" transform="translate(-181.28 -167.84)"/><path class="curve-color" d="M310.29,225.18a.58.58,0,0,0,0-.14l0-.1Z" transform="translate(-181.28 -167.84)"/><path class="curve-color" d="M309.41,227.41c.32-3.7.55-3.25.87-2.47l-.49-8.58Z" transform="translate(-181.28 -167.84)"/><path class="curve-color" d="M274,228.72l.65,2.67c-.72,4.4-1.28,2.89-.66,6.65,0-9.32,2.42-1,2.45-10.28l.43,2c-.12-.09-.14.46-.25.37.83,4.45.56-6.74,1.61-5.42a5.32,5.32,0,0,1,.38,3.17l.8-2.31c.24.19.19,1.8,0,1.63l1.23-.75v.27c.18-1.46.57-3.72.76-4.68.32,1.33-.15,1-.07,2.15l.68-2.26c.28,2.41-.28,4.75-.75,4.41.65,9.3.55-2.35,2,3.08l-.65,1.19c.42,5.28.93,3.37,1.67,6.66-.18-1.72-1.49-8.3-.74-10.62.21.7.49,1,.9-.84,0,3.31.4,2.5.89,2.31l0,4.39c.54-1.27.49-3.5.81-5.48.59.44.72,3.83.86,6.7.95.69-.66-5.45.47-6.28.79,1.68,1.35-.11,2.29-2.74.56,1.51-.09,2.68.11,3.94l.49-3.5a6,6,0,0,1,.06,1.7c.42-1.35,0-4.38.69-5.57.16-4.84,1.34,7.06,2.16,1.56.2,1.25-.1,2.69,0,4.39a39.4,39.4,0,0,0,1.86-7.47l.79,2.88c-.59-3.29.13-7.19.76-10.4-.21-1.59-.39-3-.51-3.64l1-2.36a20.53,20.53,0,0,1-.12,4.06c.06-.38.13-.75.18-1a23.61,23.61,0,0,1-.06,6.6c-.12-.89-.25-1.8-.38-2.71a76.08,76.08,0,0,0-.4,8.19,3.74,3.74,0,0,1,.33-1.19,13.85,13.85,0,0,0-.07,1.82c0,.46.14-.52.31-1.64l.25,4.89,0-1.94,1.36,3.06c.94-4.93,1.72-12.18,3.21-14.21-.34,3.6,0,5.86,0,10.11-.46-4.49-1.17,1.92-2,1,.42.47.34,2.5.24,3.2l1.38-4.1c0,3.48.32,2.61.71,4-.34-6.87,1-4.59,1.57-6.71.06,2.31-.05,4.67-.76,4.12.84,5.16.91-8.08,1.72-3.7-.17.06-.27-.29-.32.88.38-2.06,1.38-.45,1.18,1.57l-.17.05c1.15.79,3.49,0,3.53-5.84,0,.75,0,7-.05,8.21l1.6-19.66c-.07,5,.9,16.94,0,19.78.29.71.65,1.54,1.18-.24-.2-.71-.63-7.24-.39-7.7.83,5.56.55,3,1.55,7.7-.31-1.07-.21-8.93.23-8.7,0,1.18.26,7.75.11,8.57l.88-7.74a49.66,49.66,0,0,0,.47,8.7c-.17-1.5,1,.11,1.24-.66l-.53-1.77c1.29,1.12.85-10.89,2.07-10.52-.08,1.59,0,9.81.68,10.76.14-4,.5-19,1.39-22.11l.3,2.25.68-2.6c-.2,6-1.08,18.5-1.7,23.39.54,1.77.24,2.66.93,2.43.35,2.11-.25,3.22-.45,3.36l1.72,1.3c-.28-4.61,1.05-4.66.8-8.5l-1.56,4.84c-.26-4.6.44-13.1,1.61-12.36.38,1.82.18,8.22.28,9.75.08-1.59,1-3.1,1.12-2l-.37,2.49c.75,1.7.74-6.17,1.76-1.82.28.28,1.16,5.88,1.05,3.15-.77-5.23-1.78-21.47-1.74-25.43a77.83,77.83,0,0,1,2.09,7.51c.7,4.09,0,9.85.58,13.37a22,22,0,0,1,.15-3.33c.35,1,.13,3.9.71,3.29-.21-4.67,1.27.32,0-4,.5-1.37.69.92,1.38.67-.44-3-.12-10.29.34-11.66a33.08,33.08,0,0,0,.42,3.43c1.22.35,2,2.38,3.15,2.32a16.45,16.45,0,0,1,.82,4.46c.09-.84.09-2.44.43-2.59,1,4-.72.71.24,5.49-.2-2.71.56-3.82.89-5.56-.55-4.16-1.2-.69-1.55,1.05-.52-5.76-.23-11.88.61-14.66.74-1.51.76,3.69.83,2.85,1.8.84.35-10.19,2.16-6.17,1,3.61.85,7.29,1.27,9.92-.58,1.46-1.39-2.22-1.87-2l.8,1.67c-.1,1.24-.5,2.22-.88,1.18.83,3.24,3,.38,4.66,3.22a11.89,11.89,0,0,0,0-4l-.35.57c-.75-2.9.26-4.19-.43-5.5.28-2.15.44-5.49,1.41-3.93l.71,4.14c-.18-1.21-.83-2.41-.88-1.11.06-1.89,1.95,5.47,1.54,0l-.93-2.81c.25-2.17.26-6.68,1.09-5.46-.9-4.07-.08.49-1.24-4.26,1.26,5.93-1.66,0-.14,6.19-1.25-5.52-1.15-2.25-2.38-6.93.2,1.37.56,2.6-.06,2,0,.4,0,.92,0,1.23a.47.47,0,0,1-.05-.1l.05.16c0,.21,0,.25,0,0a13.58,13.58,0,0,1,.55,2.06c.14,3.19-.75,3.22-.85,4.9-.41-.61-.05-1.6-.41-3l-.15,2.5c-.42-3.05-1.47-5-.92-6.86l-.7-.07c-.61-1.68-1.23-2.31-1.43-1-.39-.63-.45,3.48-.42,1.05l-.88,2-.09-.76c-1.09-.28-1.74,5.3-3.45-.12-.29.81-.59,1.8-1.26,1l-.33-2.65c-.4,1-1.6-2.57-1.59.21-1-7.12-2.36-1.42-3.26-2.63l.19,3.47c-.58-.16-1.06.86-1.69,2.3l.22,3.07c-.48,2.56-1.71-2.09-2.65-1.71,0-1.18.27-.89.48-.19-1.48-6.87-2.25,5.14-3.54.13-.22,1.13-.43.75-.64,0,0,0,0-.07.06-.17a.11.11,0,0,0-.11,0c-.14-.52-.28-1.13-.43-1.62a14.21,14.21,0,0,0,.37,1.63c-.2.08-.5.47-.78,1.25l-.24-3.3c0,.05-.05,0-.07.1-.34-1.21-.19,1.57.06,4a15.11,15.11,0,0,0-.33,2c-.43-5.32-.75,1.82-1.27-3.85-.11,2.78-1.46,2.14-1.47,8,0-.76-.14-1.12,0-1.17-.36-.65-.72-1.3-1,.35l-.25-4.19-.62,5.66a19,19,0,0,1-.36-7.27c-1,5-.85,1.88-1.69,6.82v-2.72c-.33.11-.8,3.76-1.05,1.52-.83-5.15-3.73-.66-5.69-5.43.44,8-.93-3.57-1,2.62a16.67,16.67,0,0,1-.1-4.6c-1,1.86-1.5-3-2.15,2.24-.13-1.9.19-2.78.08-3.9-.07.41-.3,1.65-.41.52a6.89,6.89,0,0,1,.29-2.41c-1,.32-1.08,6.15-1.12,11.61-.53-2.58-.78-2.22-1.14,1.37-.19-1.79-.49-3.66.13-4.3-.35-.26-2.16-2.62-2.19,1.77-.11-1.11-.49-.33-.59.18-.79-.26-.86-.65-1.64-.23l.22.71c-.31,5.29-.66,1.18-1.29,1.82l0-.54c-1.46-3.82-.63,1.82-2.06-2.53l.08,3.29c-.13,7.07-1.28-4.17-2.11-1.47l.3,1.88c-.45,2.42-1.27-9.62-1.73-10.5a2.88,2.88,0,0,1,.29-1.45c-1.19-4.17-.15,4.31-1,5.31-.16-2.32.21-5.91-.39-6.34-.3-1.88-1.73,7.54-2.56,3.09a13.46,13.46,0,0,1-.05,4.93c-.64.64-1.75-6.77-2.31-1.12a8.64,8.64,0,0,1-.12-1.4c-.49,1.46-1.58,2.43-1.86,5.49-.52-11.36-3,5.54-3.06-4.94l-1.5.57,0-1.07c-1-.69-1.3,1.83-1.61,4.36a7.16,7.16,0,0,1-.07-2.24c-1.44-2.09-1.59-1.65-2.69,3.59l-.18-3.39c-.28,2-2.15-5.3-3.47-1.31a9.49,9.49,0,0,1,.12-1.53c-.74,2-1.73-.34-2.58-1.62s-1.59-1.51-1.69,4.68l-.94,3.09c1.36.91,0,5.38.59,7.41-.49.75-1.47-3.68-.85-4.34l.12.62c0-6.46-1.73-2.23-1.86-6.62-2.63.42-5.37-3.08-7.94-3.16l.58,5-.89-.23c-.3-1.16-.55-3.9.09-3.74-.5-2.81-.9,2.45-.85,3.54-1.35-1.95.11-5.87-.27-6l-.49.41.15.58c-.28,2.07-.18,4.24-.94,4-.54-1-.46-3.07-.66-3.25,0-.35-.1-.52-.3-.12l-1.14-.36.73,3.93c-.35,2-1-.15-.21,4.3-.62-3.43-1.7-4-2.69-3.94s-1.9.74-2.23-.31c-.42,2.95-1.09,3-2,2.7.29.8.85,5.22.09,4.75-.67-9.17-1.71-3.83-3-10.35,1,4.31-2,1.29-.43,7.39-.68-.67-.42-3.41-1.13-5.51-1,3.65-3.49-1.91-5.16-.44a22.71,22.71,0,0,1,.56,4.81l-1.8-5.83c-.28.64.68,6.94-.58,2.89a8.77,8.77,0,0,1,.43,2.9c-2.18-2.63-3.81-1.22-5.5-.34s-3.45,1.17-6.39-3.87c1,2.19.69,2.49.34,2.64.35.5.6,2.92,1,4.51l-2.43-4.14c.7,4.49-1.54.63-.73,4.89l.29-.85c.53,5.11,3.34,10.93,4.65,17.37-.31-2.91.57-.89,1.41.82s1.64,3.11,1.32-1.08c.49,1.27.23,2.11.65,3.58-.31-2.81-.1-3.45.71-2.32l.07.69c1.49-1,2.68,1.55,4.77,3.08l-.68-3.18a6.1,6.1,0,0,1,1,2.14c-.36-4.92-1.15-.11-1.65-5.52,1.62,6.44,2.84-.32,4.34,7.05.6-.05-.74-3.69-.14-3.74l.46,2-.23-2.61c.46.36,1,2.85,1.29,4.55-.13-.19-.2.52-.28.68.85,2.29,1.29-1,1.58-.27l-.74-1.16c1.37-2.13,3.66.21,4.81-4l-.3-1.51c.93-2.95,1.18,1.57,2.4.13v.37c.12-1.55.41-2.36.8-2.22-.16,1.82,1,3.41.74,5.43,1-3.17.42-2.45.79-8.21l.44,2.51c.1-2.33,0-3.54.66-4.27-.38,2.24.77,3.82.39,6.76,1.87,5.38,1.69-5.77,3,2.29.13-7.06-1.55-3.82-1.3-5.35-.5-2.27.15-5.27.67-4.6.49.13,1.47,8.93,2.61,8.72-.12,0-.09.51-.21.48.55,1.77.68-2.48,1.41.4,0-4.27.7.2.45-5.23l-1,1.33c.51-1.46.7-7.84,1.91-4.83a22.2,22.2,0,0,1-.39,3.37c.39,1.58.5-1.1.9.53.23,5.43-1.23,1.26-1.61,5.44.45,2.27,1-4,1,1.88,0-7.49,1.17.88,1.63-4.88l.13,3.25c.09-.52.27-2.07.5-2l-.19,4.24c.44-3.64,1.36,3.06,1.87,1.09-1.26.15-.48-3.91-1.13-6.26,1.38-4.42,1.32,8.47,3,6.85-.21.47-1-1.92-.67-3.44a11.1,11.1,0,0,1,1.14,3.59c1.14-.72-.32-3.34.1-5.36.56,4,.51-1.63,1-2.92l.13,3.3c1.42,2.08.1-6.9,1.41-4.38l-.35,4.6.59-1.2v3.76c.58-2.81.82-2.1,1.52-1.07-.22-2.32-.09-6,.51-6.13.46,1.95-.14,3.15.69,2.65-.14,2.07-.27,4.68-.72,1.65,0,1.08-.13,2.08-.14,3.15.5,2.24,1.1.47,1.4.43a1.29,1.29,0,0,1-.34-.76l1.11-4.61a9.57,9.57,0,0,1,0,3.22c.24-.37.37-1.89.74-2.18,0,2.69.05,5.47-.44,6.74l1.1-3a27.51,27.51,0,0,1,.54,4.19c.67,1.57,1.48-5.24,2.38-3.17a4.24,4.24,0,0,1,.3-1.41c.82.6,1.57,3.88,2.48.18l.6,4.81c.74-1.11-.8-6.06.43-7.9.88-1.55.37,4.11.69,5.45.43-2.44,1.17-7.39,2-3.47C274.47,229.08,274.25,228.36,274,228.72Zm9.42-2.17c-.18.69-.55,2.83-.68.88C282.93,223.64,283.1,225.46,283.41,226.55Zm14.54-8c-.14,1.09-.35.55-.6-.7C297.52,217.59,297.72,217.71,298,218.56Zm38.5-24.83v.16C335.92,192.65,336.11,193.14,336.45,193.73Zm1,1.35a5.3,5.3,0,0,0-.12-1.38c0,.84-.13.91-.36.7C337.08,195.26,337.26,195.84,337.41,195.08Zm-91.11,4.17.23.86C246.21,201.08,246.26,200.22,246.3,199.25Z" transform="translate(-181.28 -167.84)"/><path class="curve-color" d="M296.31,223.09c-.05-.56-.07-1.17-.09-1.8A4.8,4.8,0,0,0,296.31,223.09Z" transform="translate(-181.28 -167.84)"/><path class="curve-color" d="M268.24,230.54s0,0,0,0c0,.2,0,.4,0,.6Z" transform="translate(-181.28 -167.84)"/><path class="curve-color" d="M326.76,224.16a7.3,7.3,0,0,1-.46-1.68C326.34,223.29,326.47,224,326.76,224.16Z" transform="translate(-181.28 -167.84)"/><path class="curve-color" d="M340.8,188.94l-.37.92c.22-.2.4.51.59,1A6.49,6.49,0,0,1,340.8,188.94Z" transform="translate(-181.28 -167.84)"/><path class="curve-color" d="M348.36,208.53c0-.41.16-.06.17-.48l-.27-1.52C347.94,206.68,347.91,207.94,348.36,208.53Z" transform="translate(-181.28 -167.84)"/><path class="curve-color" d="M342.81,199.75c.43,2.76.63,1.77.92,1.21,0,0,0,0-.07,0C343.2,197.1,343,198.43,342.81,199.75Z" transform="translate(-181.28 -167.84)"/><path class="curve-color" d="M343.8,200.85c.09-.14.19-.23.32-.12C343.94,199.19,343.94,200.43,343.8,200.85Z" transform="translate(-181.28 -167.84)"/><path class="curve-color" d="M338.19,193.13c.26.69-.33-3.54-.09-2.43C337.85,187.16,337.52,195.11,338.19,193.13Z" transform="translate(-181.28 -167.84)"/><polygon class="curve-color" points="163.13 40.95 162.51 37.57 162.69 40.34 163.13 40.95"/><path class="curve-color" d="M341.08,206.72l.73.86a3,3,0,0,1,0-1.19C341.43,206.33,340.94,205.71,341.08,206.72Z" transform="translate(-181.28 -167.84)"/><path class="curve-color" d="M341.82,206.39c.2,0,.37-.06.4-.63A.84.84,0,0,0,341.82,206.39Z" transform="translate(-181.28 -167.84)"/><polygon class="curve-color" points="162.44 42.09 162.16 41.41 161.7 41.22 162.44 42.09"/><path class="curve-color" d="M334.53,206.78l-.56,1c0,1.18.29,1.88.5,1.39A6.42,6.42,0,0,0,334.53,206.78Z" transform="translate(-181.28 -167.84)"/><path class="curve-color" d="M337.53,215.93a17.22,17.22,0,0,1-.58-2.56l.43,4.23Z" transform="translate(-181.28 -167.84)"/><path class="curve-color" d="M335.63,217.12c.05,1.19-.67,3.48.18,3.13C335.77,219.07,336.36,218,335.63,217.12Z" transform="translate(-181.28 -167.84)"/><polygon class="curve-color" points="143.69 44.73 143.86 44.66 143.4 37.69 143.69 44.73"/><path class="curve-color" d="M316.63,229.7c.89,1.64,0-4.32.86-2.26.13-1.65-.67-1.68-.53-3.11C316.53,226.09,316.24,225.11,316.63,229.7Z" transform="translate(-181.28 -167.84)"/><path class="curve-color" d="M317,224.33c.07-.28.14-.61.22-1.07A6.79,6.79,0,0,0,317,224.33Z" transform="translate(-181.28 -167.84)"/><polygon class="curve-color" points="31.41 32.5 30.54 31.19 31.41 33.41 31.41 32.5"/><path class="curve-color" d="M212.8,205.6l-1.13-4.31.58,4C212.33,205.07,212.48,204.64,212.8,205.6Z" transform="translate(-181.28 -167.84)"/><path class="curve-color" d="M284.84,235.52l0-1.07c-.08-1.16-.2-1.25-.44-1.43Z" transform="translate(-181.28 -167.84)"/><polygon class="curve-color" points="96.71 64.36 96.83 64.45 96.59 60.43 96.71 64.36"/><path class="curve-color" d="M272.33,237.37c.23.16.49-.74.73-.57C272.56,237.53,272.22,232.35,272.33,237.37Z" transform="translate(-181.28 -167.84)"/></svg>