<svg id="圖層_1" data-name="圖層 1" xmlns="http://www.w3.org/2000/svg" viewBox="0 0 223.01 106.75"><defs><style>.bg-color{fill:#efeeef;}.curve-color{fill:#efe425;}</style></defs><title>nav3</title><rect class="bg-color" width="223.01" height="106.75"/><path class="curve-color" d="M206,422.19c-.22-.3-.73,2.53-.88,3C205.73,424.69,206.16,421.46,206,422.19Z" transform="translate(-185.99 -368.36)"/><polygon class="curve-color" points="25.78 48.3 25.48 49.44 26.68 46.75 25.78 48.3"/><path class="curve-color" d="M215.88,417.51c.5-4.89-1.63.49-2-1.36l.08-1.12-1.07,3.8C213.87,418.4,215.5,416.05,215.88,417.51Z" transform="translate(-185.99 -368.36)"/><path class="curve-color" d="M216.26,428.37c.18-1.91.77-1.52-.43-.69,0,.21,0,.34,0,.49C215.94,428.16,216.06,428.19,216.26,428.37Z" transform="translate(-185.99 -368.36)"/><path class="curve-color" d="M215.84,428.17c-.47.05,0,1.64,0,0Z" transform="translate(-185.99 -368.36)"/><path class="curve-color" d="M218.09,427.45l-.87,1.58c-.07,1.13.42,1.46.09,2.24C218.07,430.45,218.13,429.32,218.09,427.45Z" transform="translate(-185.99 -368.36)"/><path class="curve-color" d="M219.24,424l-.42.66C218.79,425.14,218.85,425.32,219.24,424Z" transform="translate(-185.99 -368.36)"/><path class="curve-color" d="M217.92,426.07l.9-1.4c.05-.79.3-2.36-.39.5C218.73,423.75,218.37,425.1,217.92,426.07Z" transform="translate(-185.99 -368.36)"/><path class="curve-color" d="M217.69,425.28a4.23,4.23,0,0,1,.41-3.41C216.88,422.34,216.45,425.77,217.69,425.28Z" transform="translate(-185.99 -368.36)"/><path class="curve-color" d="M217,412.57l-.16-1.49-.66,1.54C216.5,411.86,216.75,414.08,217,412.57Z" transform="translate(-185.99 -368.36)"/><path class="curve-color" d="M221.36,430.52c.2-1,.24-2.78.4-4.1l-.62,1.12A7.65,7.65,0,0,1,221.36,430.52Z" transform="translate(-185.99 -368.36)"/><path class="curve-color" d="M221.76,426.42l.92-1.66C222.14,424.46,221.91,425.28,221.76,426.42Z" transform="translate(-185.99 -368.36)"/><polygon class="curve-color" points="34.24 50.3 32.58 53.85 34.45 50.28 34.24 50.3"/><polygon class="curve-color" points="37.85 62.67 37.12 65 38.32 61.5 37.85 62.67"/><path class="curve-color" d="M225.57,430.87c-.56,1.93-.11,3.4-.57,4.57.5-.28,1.14-1.92,1.7-3.39C226.21,432.85,225.84,432.57,225.57,430.87Z" transform="translate(-185.99 -368.36)"/><path class="curve-color" d="M227.59,429.91a20.12,20.12,0,0,0-.89,2.14A10.09,10.09,0,0,0,227.59,429.91Z" transform="translate(-185.99 -368.36)"/><path class="curve-color" d="M223.7,425.43a10.28,10.28,0,0,0,.07,3l.18-2.93Z" transform="translate(-185.99 -368.36)"/><path class="curve-color" d="M224,425.42v.1a3.46,3.46,0,0,1,.52.24A4.93,4.93,0,0,1,224,425.42Z" transform="translate(-185.99 -368.36)"/><path class="curve-color" d="M223.64,425.41l.06,0C223.72,425.15,223.72,425.05,223.64,425.41Z" transform="translate(-185.99 -368.36)"/><path class="curve-color" d="M221.47,421.54c.64-1.56,1.69-3.18,1.33-5.76C222.22,417.72,222.43,419.19,221.47,421.54Z" transform="translate(-185.99 -368.36)"/><path class="curve-color" d="M223.88,421.74l-.57-.77a12.56,12.56,0,0,1-.47,2.68Z" transform="translate(-185.99 -368.36)"/><polygon class="curve-color" points="38.36 52.51 37.89 53.38 38.1 53.66 38.36 52.51"/><path class="curve-color" d="M226.79,427c.47-1.22.81-1.28,1.21-1.42-.32-.63-.68-1-1.06-1.06C226.76,425.45,226.35,427.05,226.79,427Z" transform="translate(-185.99 -368.36)"/><path class="curve-color" d="M225.45,426c0-.07.06-.1.09-.16C225.53,425.58,225.51,425.5,225.45,426Z" transform="translate(-185.99 -368.36)"/><path class="curve-color" d="M231.58,426.08c0-.17,0-.36,0-.54,0,.17-.05.33-.08.5Z" transform="translate(-185.99 -368.36)"/><path class="curve-color" d="M227,424c-.21-.6-.49.08-.78.95a1.1,1.1,0,0,1,.77-.4C227,424.14,227.07,423.87,227,424Z" transform="translate(-185.99 -368.36)"/><path class="curve-color" d="M228.79,428.7a15.6,15.6,0,0,0-.3-1.66C228.52,428,228.63,429.45,228.79,428.7Z" transform="translate(-185.99 -368.36)"/><path class="curve-color" d="M225.52,426.65l-.06.12C225.46,427.41,225.49,427.1,225.52,426.65Z" transform="translate(-185.99 -368.36)"/><path class="curve-color" d="M225.52,426.65a14.18,14.18,0,0,0,.65-1.71,3,3,0,0,0-.63.89C225.54,426,225.53,426.36,225.52,426.65Z" transform="translate(-185.99 -368.36)"/><path class="curve-color" d="M235,407.54c-.39,2.69-1.45,5.09-1.71,2.13-.89,1.94-1.66,10.85-1.72,15.87a9.2,9.2,0,0,1,1.18-3.77c-.05-1.5-1-3.62-.15-6,1-1.28.59,1,.83,2.52.07-3.4,1.72-4.75,2.15-9.72l-1,1.65A12.85,12.85,0,0,0,235,407.54Z" transform="translate(-185.99 -368.36)"/><path class="curve-color" d="M230.34,425.11l-.32.3a13.34,13.34,0,0,1,.48,3.77,10.12,10.12,0,0,0,1-3.14l-1.31-.54Z" transform="translate(-185.99 -368.36)"/><path class="curve-color" d="M228.78,425.27c.62-2.89,1.44-4.07,1.47-7.28-.83.1-.9,2.36-1.55,3.56,1.4-.52-.6,1.58.11,3.38a1.59,1.59,0,0,1-.81.67,7.75,7.75,0,0,1,.49,1.44v-.19h0v-.05c0-.37,0-.6,0-.37a.1.1,0,0,1,0-.06c.07-.41.14-.76.21-1.09.3.66,0,.76-.21,1.09,0,.14-.05.29-.07.43v0l1.53-1.44C229.8,425,229.44,425,228.78,425.27Z" transform="translate(-185.99 -368.36)"/><path class="curve-color" d="M224.48,409.61a4.45,4.45,0,0,1-.07.68C224.55,410,224.62,409.71,224.48,409.61Z" transform="translate(-185.99 -368.36)"/><path class="curve-color" d="M224.72,411.45c-.15.39-.41,1.55-.67,1.2a8,8,0,0,1,.36-2.36,5.58,5.58,0,0,0-.62,3.5l.16-.38a19.71,19.71,0,0,1,.3,5.22C224.5,416,224.66,414.08,224.72,411.45Z" transform="translate(-185.99 -368.36)"/><path class="curve-color" d="M226.83,417.61l1.28-1.27-.17-2.62-.2,1.53C227.23,414.56,227.08,416.45,226.83,417.61Z" transform="translate(-185.99 -368.36)"/><polygon class="curve-color" points="45.52 59.19 44.98 62.27 46.17 57.98 45.52 59.19"/><polygon class="curve-color" points="47 58.99 46.6 61.68 47.19 60.1 47 58.99"/><path class="curve-color" d="M313,398.36l.34-.76A2.6,2.6,0,0,0,313,398.36Z" transform="translate(-185.99 -368.36)"/><path class="curve-color" d="M310.73,398.1l-.1,1.33A3,3,0,0,0,310.73,398.1Z" transform="translate(-185.99 -368.36)"/><path class="curve-color" d="M267.78,430c.33,2.55.64,6.5.74,3.45l0-3C268.19,431,268,430.68,267.78,430Z" transform="translate(-185.99 -368.36)"/><path class="curve-color" d="M291.79,413.26c0-.29-.06-.6-.1-.9-.14,1-.28,2-.4,2.83C291.44,414.6,291.61,414,291.79,413.26Z" transform="translate(-185.99 -368.36)"/><path class="curve-color" d="M292.53,401l.53,1.94A9,9,0,0,0,292.53,401Z" transform="translate(-185.99 -368.36)"/><path class="curve-color" d="M325.53,395.7l.51-3C325.46,392.68,325.65,394.22,325.53,395.7Z" transform="translate(-185.99 -368.36)"/><path class="curve-color" d="M247.67,427.81c.3,1.2.58,1.71.85,1.88C248.18,428,248,425.36,247.67,427.81Z" transform="translate(-185.99 -368.36)"/><path class="curve-color" d="M311,429.89a5.39,5.39,0,0,0,.33-1.8A4.05,4.05,0,0,0,311,429.89Z" transform="translate(-185.99 -368.36)"/><path class="curve-color" d="M249.68,429.79c0-.3-.1-.46-.15-.71-.34.47-.67.84-1,.61C248.76,431,249.11,431.82,249.68,429.79Z" transform="translate(-185.99 -368.36)"/><path class="curve-color" d="M371.22,401.9c0,.13,0,.2.06.36C371.34,401.86,371.29,401.84,371.22,401.9Z" transform="translate(-185.99 -368.36)"/><path class="curve-color" d="M379.56,433.53a.66.66,0,0,1-.54.14C379.07,433.89,379.23,433.89,379.56,433.53Z" transform="translate(-185.99 -368.36)"/><path class="curve-color" d="M238.59,429.34c-.32.15-.08.32,0,0Z" transform="translate(-185.99 -368.36)"/><path class="curve-color" d="M238.44,417.46a7.58,7.58,0,0,0,.28-1.42A8.58,8.58,0,0,1,238.44,417.46Z" transform="translate(-185.99 -368.36)"/><path class="curve-color" d="M254.13,411.58h0C254.12,411,254.12,411.12,254.13,411.58Z" transform="translate(-185.99 -368.36)"/><path class="curve-color" d="M238.28,427.94a3.85,3.85,0,0,0,.29.92A3.45,3.45,0,0,0,238.28,427.94Z" transform="translate(-185.99 -368.36)"/><path class="curve-color" d="M238.19,429.34c-.09-.14-.17-.23-.23-.31C237.86,429.51,237.86,429.82,238.19,429.34Z" transform="translate(-185.99 -368.36)"/><path class="curve-color" d="M239,429.23c-.18,0-.32-.14-.46-.37a1.15,1.15,0,0,1,0,.48A1.71,1.71,0,0,1,239,429.23Z" transform="translate(-185.99 -368.36)"/><path class="curve-color" d="M346,407.33c0,.1,0,.16,0,.29C346.38,406.41,346.24,406.59,346,407.33Z" transform="translate(-185.99 -368.36)"/><path class="curve-color" d="M276.9,399.55a.57.57,0,0,0,0,.14l0,.11Z" transform="translate(-185.99 -368.36)"/><path class="curve-color" d="M278,397.38c-.6,3.68-.84,3.21-1.13,2.42l0,8.58Z" transform="translate(-185.99 -368.36)"/><path class="curve-color" d="M318.44,397.7l-.64-2.7c1.07-4.36,1.66-2.82,1.11-6.61-.47,9.31-2.93.85-3.38,10.15l-.41-2c.13.09.17-.46.31-.36-.79-4.49-.95,6.71-2.12,5.33a4.58,4.58,0,0,1-.32-3.18l-1,2.27c-.27-.19-.15-1.81.12-1.62l-1.47.69,0-.27c-.26,1.45-.8,3.69-1.06,4.65-.33-1.35.21-1,.16-2.15l-.88,2.23c-.24-2.43.5-4.74,1-4.38-.43-9.32-.75,2.32-2.17-3.16l.79-1.16c-.3-5.3-.95-3.4-1.7-6.72.15,1.73,1.43,8.35.49,10.64-.22-.71-.53-1.05-1.06.8.11-3.31-.37-2.51-.95-2.34l.18-4.38c-.65,1.25-.68,3.48-1.11,5.44-.67-.45-.7-3.86-.77-6.72-1.07-.73.58,5.47-.74,6.25-.86-1.7-1.56.07-2.74,2.66-.59-1.54.2-2.68,0-3.94l-.68,3.47a5,5,0,0,1,0-1.7c-.52,1.34-.18,4.38-1,5.55-.36,4.82-1.31-7.11-2.41-1.65a42.46,42.46,0,0,1,.19-4.39,35.9,35.9,0,0,0-2.38,7.39l-.79-2.91c.54,3.31-.42,7.18-1.27,10.35.18,1.6.33,3,.44,3.67L291,419.24a17.93,17.93,0,0,1,.31-4.05c-.09.36-.18.72-.25,1.05a20.48,20.48,0,0,1,.33-6.6c.1.9.21,1.81.32,2.72a66.12,66.12,0,0,0,.78-8.17,3.19,3.19,0,0,1-.42,1.18,11.34,11.34,0,0,0,.15-1.81c0-.46-.18.5-.41,1.62l-.09-4.9-.13,1.94-1.42-3.11c-1.26,4.88-2.47,12.09-4.28,14.05.56-3.57.31-5.85.49-10.1.3,4.52,1.41-1.86,2.27-.92-.45-.49-.28-2.51-.13-3.21l-1.75,4c.16-3.48-.24-2.62-.6-4.07.06,6.87-1.36,4.52-2.09,6.6.05-2.31.3-4.66,1.07-4.07-.67-5.2-1.44,8-2.13,3.59.2,0,.29.31.41-.85-.53,2-1.57.36-1.23-1.64l.2,0c-1.25-.87-3.89-.21-4.34,5.61,0-.75.47-7,.6-8.19l-3.17,19.51c.43-5,.2-16.95,1.39-19.73-.27-.73-.61-1.57-1.33.17.17.72.18,7.26-.12,7.7-.52-5.61-.41-3-1.13-7.81.25,1.09-.47,8.92-.95,8.65.14-1.17.34-7.75.56-8.56l-1.6,7.64a45.21,45.21,0,0,0,.21-8.72c.05,1.52-1-.2-1.4.55l.42,1.81c-1.31-1.23-1.93,10.76-3.29,10.28.25-1.58.95-9.76.31-10.77-.53,3.93-2.49,18.9-3.91,21.87l-.11-2.27-1.1,2.52c1-5.9,3.33-18.3,4.48-23.12-.41-1.81,0-2.66-.77-2.5-.15-2.13.6-3.18.83-3.3l-1.69-1.45c-.2,4.61-1.64,4.54-1.8,8.37l2.22-4.66c-.18,4.59-1.9,13-3.13,12.11-.21-1.85.75-8.17.81-9.71-.26,1.57-1.38,2.94-1.43,1.81l.69-2.42c-.58-1.78-1.53,6-2.09,1.57-.27-.32-.46-6-.7-3.27.11,5.28-.88,21.53-1.48,25.45a59.93,59.93,0,0,1-1.39-7.74c-.19-4.15,1.43-9.76,1.27-13.33a20.71,20.71,0,0,1-.63,3.28c-.23-1.09.4-3.88-.3-3.36-.45,4.66-1.33-.49-.61,3.92-.75,1.29-.62-1-1.4-.86,0,3-1.48,10.21-2.25,11.49a28.3,28.3,0,0,0,.08-3.45c-1.33-.5-1.88-2.71-3.13-2.86,0-1.14-.51-2.56-.08-4.54-.25.81-.55,2.37-.95,2.45-.38-4.1.92-.55.78-5.44-.29,2.7-1.33,3.64-2,5.28-.21,4.19,1.21.92,1.9-.72-.5,5.77-2,11.72-3.6,14.26-1.21,1.33-.12-3.77-.38-3-1.9-1.19-2.69,9.9-4,5.59-.29-3.73.72-7.3.84-10,1-1.31,1.09,2.45,1.69,2.35l-.55-1.8c.4-1.19,1.06-2.07,1.27-1-.22-3.36-3.29-.92-4.48-4.15a10.46,10.46,0,0,0-.95,3.91l.54-.45c.13,3-1.36,4-.89,5.43-.88,2-2,5.17-2.74,3.39l.31-4.2c-.13,1.23.31,2.56.72,1.32-.6,1.81-.76-5.82-1.82-.41l.31,3c-.91,2-2.28,6.35-3,4.93-.12,4.17.25-.45.26,4.45.21-6.07,2.13.51,2.05-5.9-.05,5.68.77,2.5,1,7.38.13-1.38,0-2.67.65-1.9a10.63,10.63,0,0,1,.29-1.2s0,.06,0,.11a1,1,0,0,0,0-.17c.05-.2.06-.25,0-.06a11,11,0,0,1-.12-2.14c.7-3.12,1.8-2.89,2.35-4.48.34.7-.34,1.56-.28,3.06l.83-2.39c-.27,3.07.57,5.19-.6,6.89l.87.22c.34,1.77,1,2.52,1.57,1.27.36.71,1.4-3.29.8-.92l1.57-1.77-.06.76c1.35.52,3.27-4.82,4.35.87.53-.73,1.08-1.64,1.78-.7l-.06,2.67c.66-.87,1.57,2.79,2,0,.09,7.2,2.76,1.76,3.71,3.11l.28-3.47c.7.24,1.46-.69,2.43-2l.15-3.08c.93-2.46,1.81,2.32,3,2.09-.16,1.17-.44.84-.61.12,1,7,3.31-4.88,4.31.25.39-1.1.6-.71.78.08,0,0-.06.06-.09.15a.15.15,0,0,0,.13.05c.12.53.23,1.16.36,1.66a11.8,11.8,0,0,0-.28-1.67c.25-.05.65-.41,1.06-1.16l0,3.3s.06,0,.09-.08c.3,1.23.38-1.55.32-4a13.56,13.56,0,0,0,.59-2c0,5.34,1.06-1.74,1.17,4,.39-2.76,2-2,2.44-7.8,0,.76.07,1.13-.13,1.16.37.69.75,1.37,1.2-.25l0,4.21,1.16-5.6a16.15,16.15,0,0,1-.11,7.27c1.53-4.91,1.15-1.82,2.47-6.7l-.18,2.71c.4-.08,1.19-3.69,1.33-1.44.67,5.19,4.34.89,6.43,5.78-.15-8,.92,3.62,1.24-2.58.06,1.9.34,3-.09,4.61,1.22-1.82,1.63,3.05,2.61-2.14.07,1.9-.34,2.76-.27,3.89.11-.41.43-1.63.51-.5a5.85,5.85,0,0,1-.44,2.4c1.19-.28,1.52-6.1,1.79-11.57.51,2.61.82,2.26,1.37-1.31.15,1.79.43,3.67-.32,4.29.4.28,2.42,2.71,2.61-1.67.09,1.11.57.34.69-.16.92.29,1,.69,1.9.31l-.22-.73c.52-5.27.78-1.15,1.53-1.76l0,.54c1.55,3.87.78-1.81,2.29,2.6l0-3.29c.38-7.07,1.32,4.22,2.36,1.55l-.28-1.89c.6-2.41,1.14,9.66,1.63,10.56a2.45,2.45,0,0,1-.38,1.43c1.23,4.22.32-4.3,1.37-5.27.11,2.33-.44,5.9.24,6.36.27,1.89,2.25-7.48,3-3a12,12,0,0,1,.22-4.93c.75-.61,1.73,6.84,2.57,1.22a7.69,7.69,0,0,1,.09,1.41c.6-1.44,1.88-2.36,2.32-5.4.1,11.37,3.65-5.4,3.25,5.07l1.72-.5-.09,1.07c1.06.73,1.54-1.75,2-4.25a6.39,6.39,0,0,1,0,2.24c1.49,2.18,1.66,1.74,3.21-3.41v3.4c.45-2,2,5.43,3.77,1.53a8.21,8.21,0,0,1-.24,1.52c1.95-3.92,3.65,9.62,4.94-2.7l1.31-3c-1.43-1.05.52-5.35,0-7.44.64-.69,1.32,3.81.56,4.41L334,420c-.63,6.43,1.72,2.39,1.42,6.78,2.94-.15,5.55,3.57,8.2,4.07l.06-5,.92.37c.17,1.18,0,3.93-.61,3.68.14,2.86,1.3-2.29,1.41-3.38,1.16,2.13-1,5.8-.57,5.95l.58-.33-.08-.6c.6-2,.81-4.17,1.6-3.86.43,1,0,3.11.2,3.31,0,.36,0,.53.29.17l1.15.52-.14-4c.68-1.9,1.1.3.92-4.22.12,3.48,1.18,4.19,2.25,4.3s2.14-.34,2.28.76c1-2.8,1.74-2.68,2.6-2.24-.14-.84.17-5.29.9-4.66-1.21,9.11,1,4.11.95,10.75-.09-4.42,2.31-.85,2.11-7.13.57.8-.33,3.42-.08,5.62,1.94-3.4,3.08,2.69,5.08,1.74a21.41,21.41,0,0,1,.73-4.79l.22,6.11c.44-.53,1.25-6.85,1.37-2.61a8.1,8.1,0,0,1,.4-2.91c1.46,3.17,3.5,2.19,5.46,1.93s3.86.17,4.76,5.93c-.1-2.39.26-2.57.66-2.59-.15-.59.51-2.93.74-4.55l.77,4.73c1.08-4.42,1.71,0,2.65-4.26l-.63.68c1.59-4.92,1.11-11.35,2.35-17.8-1.78,5.6-.59-8.85-3.29-.85-.07-1.37.59-2.05.69-3.58-.8,2.73-1.28,3.24-1.81,1.87l.2-.67c-2.17.34-2.62-2.59-4.69-4.75l-.3,3.23c-.44-.49-.4-1.51-.52-2.35-1.27,4.8,1.37.46.06,5.76.29-6.62-3.48-.55-2.9-8.06-.77-.14-.28,3.76-1,3.61l.07-2-.54,2.57c-.45-.49-.37-3-.17-4.76.1.22.42-.43.57-.55-.36-2.47-2,.56-2.1-.25l.59,1.34c-2.35,1.61-4.63-1.39-7.11,2.54l0,1.54c-1.84,2.66-1.05-1.81-2.88-.67l.1-.36c-.5,1.48-1,2.2-1.47,2,.61-1.74-.45-3.55.31-5.47-2,2.86-1.08,2.29-2.72,7.85v-2.55c-.59,2.25-.74,3.45-1.63,4,.89-2.11-.18-3.92.86-6.71-1.29-5.74-3.12,5.36-3.23-2.82-1.41,6.95,1.19,4,.61,5.48.17,2.32-1.12,5.19-1.61,4.45-.54-.2-.19-9-1.63-9,.14,0,.19-.49.33-.44-.4-1.83-1.24,2.34-1.67-.62-.69,4.22-.83-.31-1.35,5.09l1.4-1.15c-.85,1.36-2,7.64-3,4.48a18.39,18.39,0,0,1,.95-3.28c-.24-1.62-.76,1-1-.66.5-5.41,1.67-1.06,2.78-5.13-.21-2.31-1.8,3.81-1-2-1.13,7.41-1.35-1.06-2.72,4.57l.29-3.25c-.19.5-.61,2-.89,1.91l.81-4.17c-1,3.53-1.31-3.27-2.2-1.35,1.59,0,.1,3.93.6,6.35-2.21,4.22-.55-8.57-2.83-7.14.33-.44,1,2,.43,3.5a10,10,0,0,1-1-3.7c-1.48.59,0,3.36-.72,5.32-.24-4-.8,1.57-1.5,2.8l.19-3.3c-1.5-2.22-.83,6.86-2.14,4.21l.88-4.55-.83,1.14.37-3.75c-1,2.74-1.21,2-2,.91.07,2.33-.43,6-1.15,6.05-.39-2,.44-3.13-.6-2.72.33-2.05.72-4.63,1-1.56.1-1.07.34-2.06.44-3.12-.41-2.29-1.31-.59-1.69-.59a1.2,1.2,0,0,1,.37.8l-1.71,4.5a8.18,8.18,0,0,1,.29-3.2c-.32.34-.6,1.85-1.05,2.12.24-2.69.35-5.46,1-6.7l-1.56,2.92c0-1.17-.57-3.24-.34-4.22-.71-1.61-2.17,5.13-3.11,3a3.45,3.45,0,0,1-.44,1.38c-.95-.65-1.67-4-3-.35l-.46-4.85c-.95,1,.64,6.11-.94,7.86-1.12,1.49-.24-4.13-.56-5.48-.62,2.41-1.72,7.32-2.54,3.36C317.9,397.32,318.13,398,318.44,397.7Zm-11.12,1.74c.23-.68.73-2.81.82-.86C307.77,402.37,307.65,400.55,307.32,399.44Zm-16.92,7.41c.2-1.09.42-.53.65.73C290.85,407.84,290.62,407.71,290.4,406.85ZM242.18,427l0-.16C242.58,428.18,242.46,427.65,242.18,427Zm-.87-1.53a4.28,4.28,0,0,0-.19,1.37c.16-.82.39-.86.63-.6C241.76,425.38,241.69,424.77,241.31,425.48Zm106,4.3-.11-.88C347.69,428,347.51,428.83,347.31,429.78Z" transform="translate(-185.99 -368.36)"/><path class="curve-color" d="M292.44,402.39c0,.56,0,1.18,0,1.8A4.22,4.22,0,0,0,292.44,402.39Z" transform="translate(-185.99 -368.36)"/><path class="curve-color" d="M325.44,396.26s0,0,0,0q0-.3.06-.6Z" transform="translate(-185.99 -368.36)"/><path class="curve-color" d="M259,398.83a6.91,6.91,0,0,1,.26,1.73C259.3,399.76,259.26,399.07,259,398.83Z" transform="translate(-185.99 -368.36)"/><path class="curve-color" d="M235.27,430.44l.76-.77c-.34.12-.37-.61-.47-1.15C235.49,429.29,235.48,430.41,235.27,430.44Z" transform="translate(-185.99 -368.36)"/><path class="curve-color" d="M232.24,409.45c-.14.39-.2,0-.34.42l-.18,1.53C232.12,411.34,232.56,410.14,232.24,409.45Z" transform="translate(-185.99 -368.36)"/><path class="curve-color" d="M236,419.45c.28-2.77-.24-1.88-.75-1.42,0,0,.06,0,.08,0C234.7,421.89,235.34,420.66,236,419.45Z" transform="translate(-185.99 -368.36)"/><path class="curve-color" d="M235.11,418.11c-.16.11-.31.17-.42,0C234.44,419.67,234.81,418.47,235.11,418.11Z" transform="translate(-185.99 -368.36)"/><path class="curve-color" d="M239.83,427.18c-.14-.73-.51,3.53-.52,2.38C238.69,433.06,241.22,425.48,239.83,427.18Z" transform="translate(-185.99 -368.36)"/><polygon class="curve-color" points="50.71 41.94 50.45 45.37 51.03 42.65 50.71 41.94"/><path class="curve-color" d="M239.89,413.23l-.6-1a2.75,2.75,0,0,1-.32,1.14C239.39,413.5,239.79,414.24,239.89,413.23Z" transform="translate(-185.99 -368.36)"/><path class="curve-color" d="M239,413.34c-.22-.1-.45,0-.64.5A1,1,0,0,0,239,413.34Z" transform="translate(-185.99 -368.36)"/><polygon class="curve-color" points="51.78 41.03 51.91 41.77 52.37 42.08 51.78 41.03"/><path class="curve-color" d="M247.42,414.64l.86-.91c.19-1.16,0-1.9-.29-1.46A6,6,0,0,0,247.42,414.64Z" transform="translate(-185.99 -368.36)"/><path class="curve-color" d="M246,405.06a15,15,0,0,1,.08,2.63l.44-4.23Z" transform="translate(-185.99 -368.36)"/><path class="curve-color" d="M248.3,404.27c.19-1.17,1.4-3.27.43-3.09C248.54,402.34,247.7,403.24,248.3,404.27Z" transform="translate(-185.99 -368.36)"/><polygon class="curve-color" points="73.33 42.21 73.14 42.25 72.68 49.22 73.33 42.21"/><path class="curve-color" d="M270.4,394.5c-.8-1.72-.44,4.29-1.13,2.17-.3,1.64.56,1.73.27,3.15C270.18,398.11,270.41,399.1,270.4,394.5Z" transform="translate(-185.99 -368.36)"/><path class="curve-color" d="M269.54,399.82c-.1.27-.21.6-.33,1A5.24,5.24,0,0,0,269.54,399.82Z" transform="translate(-185.99 -368.36)"/><polygon class="curve-color" points="194.92 69.2 195.2 70.73 195.28 68.36 194.92 69.2"/><path class="curve-color" d="M382.91,432.64l-.68,4.4,1.07-3.91C383.14,433.31,382.82,433.65,382.91,432.64Z" transform="translate(-185.99 -368.36)"/><path class="curve-color" d="M306,390.43l-.08,1.07c.06,1.16.19,1.25.46,1.44Z" transform="translate(-185.99 -368.36)"/><polygon class="curve-color" points="127.9 25.67 127.76 25.58 127.87 29.61 127.9 25.67"/><path class="curve-color" d="M320.85,389.15c-.27-.18-.63.7-.9.52C320.58,389,320.73,394.17,320.85,389.15Z" transform="translate(-185.99 -368.36)"/></svg>