<svg id="圖層_1" data-name="圖層 1" xmlns="http://www.w3.org/2000/svg" viewBox="0 0 223.01 106.75"><defs><style>.bg-color{fill:#efeeef;}.curve-color{fill:#efe425;}</style></defs><title>nav4</title><rect class="bg-color" width="223.01" height="106.75"/><path class="curve-color" d="M395.21,223.31c.24.27.42-2.6.51-3.11C395.2,220.8,395.15,224.05,395.21,223.31Z" transform="translate(-181.32 -197)"/><polygon class="curve-color" points="208.81 32.41 209 31.24 208.08 34.05 208.81 32.41"/><path class="curve-color" d="M386,229c0,4.91,1.57-.66,2.16,1.14l0,1.13.68-3.9C387.88,227.89,386.48,230.39,386,229Z" transform="translate(-181.32 -197)"/><path class="curve-color" d="M384.64,218.22c0,1.91-.63,1.59.47.64,0-.21,0-.33-.05-.49A.48.48,0,0,1,384.64,218.22Z" transform="translate(-181.32 -197)"/><path class="curve-color" d="M385.06,218.37c.45-.09-.16-1.62,0,0Z" transform="translate(-181.32 -197)"/><path class="curve-color" d="M382.92,219.29l.72-1.65c0-1.13-.52-1.42-.26-2.22C382.7,216.3,382.73,217.42,382.92,219.29Z" transform="translate(-181.32 -197)"/><path class="curve-color" d="M382.07,222.81l.36-.7C382.42,221.64,382.35,221.47,382.07,222.81Z" transform="translate(-181.32 -197)"/><path class="curve-color" d="M383.2,220.65l-.77,1.46c0,.8-.1,2.38.34-.52C382.6,223,382.84,221.65,383.2,220.65Z" transform="translate(-181.32 -197)"/><path class="curve-color" d="M383.5,221.42a4.26,4.26,0,0,1-.13,3.43C384.54,224.28,384.67,220.83,383.5,221.42Z" transform="translate(-181.32 -197)"/><path class="curve-color" d="M385.31,234l.31,1.47.52-1.6C385.88,234.66,385.42,232.47,385.31,234Z" transform="translate(-181.32 -197)"/><path class="curve-color" d="M379.48,216.48c-.12,1,0,2.78-.09,4.11l.53-1.16A7.82,7.82,0,0,1,379.48,216.48Z" transform="translate(-181.32 -197)"/><path class="curve-color" d="M379.39,220.59l-.78,1.73C379.17,222.58,379.34,221.74,379.39,220.59Z" transform="translate(-181.32 -197)"/><polygon class="curve-color" points="200.2 31.22 201.56 27.56 199.99 31.25 200.2 31.22"/><polygon class="curve-color" points="195.7 19.15 196.25 16.78 195.32 20.36 195.7 19.15"/><path class="curve-color" d="M375.35,216.44c.42-2-.12-3.39.26-4.6-.47.32-1,2-1.44,3.51C374.6,214.52,375,214.78,375.35,216.44Z" transform="translate(-181.32 -197)"/><path class="curve-color" d="M373.43,217.55a19,19,0,0,0,.74-2.2A10.2,10.2,0,0,0,373.43,217.55Z" transform="translate(-181.32 -197)"/><path class="curve-color" d="M377.55,221.72a10.45,10.45,0,0,0-.27-3l0,2.94A2.27,2.27,0,0,0,377.55,221.72Z" transform="translate(-181.32 -197)"/><path class="curve-color" d="M377.3,221.75v-.09a4.31,4.31,0,0,1-.53-.21C376.84,221.49,377,221.57,377.3,221.75Z" transform="translate(-181.32 -197)"/><path class="curve-color" d="M377.62,221.74l-.07,0C377.55,222,377.56,222.11,377.62,221.74Z" transform="translate(-181.32 -197)"/><path class="curve-color" d="M380.06,225.44c-.51,1.6-1.44,3.3-.88,5.85C379.61,229.31,379.29,227.86,380.06,225.44Z" transform="translate(-181.32 -197)"/><path class="curve-color" d="M377.64,225.42l.63.72a12.49,12.49,0,0,1,.27-2.7Z" transform="translate(-181.32 -197)"/><polygon class="curve-color" points="195.92 29.32 196.32 28.42 196.09 28.15 195.92 29.32"/><path class="curve-color" d="M374.4,220.38c-.39,1.25-.72,1.33-1.1,1.5.35.61.73,1,1.11,1C374.53,221.94,374.83,220.31,374.4,220.38Z" transform="translate(-181.32 -197)"/><path class="curve-color" d="M375.79,221.3a.8.8,0,0,1-.08.16C375.74,221.72,375.76,221.8,375.79,221.3Z" transform="translate(-181.32 -197)"/><path class="curve-color" d="M369.71,221.61c0,.17,0,.36,0,.54,0-.18,0-.34,0-.51Z" transform="translate(-181.32 -197)"/><path class="curve-color" d="M374.44,223.4c.25.59.48-.11.71-1a1.06,1.06,0,0,1-.74.45C374.36,223.27,374.33,223.54,374.44,223.4Z" transform="translate(-181.32 -197)"/><path class="curve-color" d="M372.32,218.84a13.61,13.61,0,0,0,.4,1.64C372.63,219.55,372.43,218.08,372.32,218.84Z" transform="translate(-181.32 -197)"/><path class="curve-color" d="M375.68,220.65a.39.39,0,0,1,.05-.13C375.68,219.89,375.67,220.19,375.68,220.65Z" transform="translate(-181.32 -197)"/><path class="curve-color" d="M375.68,220.65a13.36,13.36,0,0,0-.53,1.75,3.1,3.1,0,0,0,.56-.94C375.69,221.26,375.68,220.94,375.68,220.65Z" transform="translate(-181.32 -197)"/><path class="curve-color" d="M367.32,240.31c.24-2.71,1.17-5.16,1.63-2.21.79-2,1-10.93.78-15.95a9.13,9.13,0,0,1-1,3.82c.13,1.5,1.25,3.57.51,6-1,1.34-.66-1-1-2.47.13,3.4-1.47,4.84-1.62,9.82l.9-1.7A12.08,12.08,0,0,0,367.32,240.31Z" transform="translate(-181.32 -197)"/><path class="curve-color" d="M371,222.51l.31-.32a13,13,0,0,1-.7-3.74,10,10,0,0,0-.82,3.19l1.34.47Z" transform="translate(-181.32 -197)"/><path class="curve-color" d="M372.54,222.27c-.43,2.93-1.18,4.14-1,7.35.83-.14.75-2.41,1.33-3.66-1.37.63.5-1.61-.33-3.35a1.62,1.62,0,0,1,.77-.73,7,7,0,0,1-.58-1.4c0,.07,0,.13,0,.19h0v.05c0,.37,0,.59,0,.37,0,0,0,0,0,.06,0,.41-.09.77-.14,1.11-.34-.64,0-.77.14-1.11,0-.14,0-.28,0-.43v0l-1.43,1.52C371.55,222.62,371.9,222.56,372.54,222.27Z" transform="translate(-181.32 -197)"/><path class="curve-color" d="M378,237.57a5.13,5.13,0,0,1,0-.69C377.88,237.23,377.83,237.48,378,237.57Z" transform="translate(-181.32 -197)"/><path class="curve-color" d="M377.58,235.75c.13-.41.3-1.58.59-1.25a7.82,7.82,0,0,1-.18,2.38,5.42,5.42,0,0,0,.35-3.54l-.12.39a19,19,0,0,1-.71-5.18C377.46,231.22,377.44,233.12,377.58,235.75Z" transform="translate(-181.32 -197)"/><path class="curve-color" d="M375,229.75l-1.2,1.37.36,2.59.09-1.53C374.81,232.83,374.82,230.93,375,229.75Z" transform="translate(-181.32 -197)"/><polygon class="curve-color" points="188.37 23.14 188.73 20.03 187.79 24.39 188.37 23.14"/><polygon class="curve-color" points="186.91 23.41 187.15 20.71 186.66 22.32 186.91 23.41"/><path class="curve-color" d="M287.82,251.75l-.31.78A2.65,2.65,0,0,0,287.82,251.75Z" transform="translate(-181.32 -197)"/><path class="curve-color" d="M290.08,251.91l.05-1.34A3.15,3.15,0,0,0,290.08,251.91Z" transform="translate(-181.32 -197)"/><path class="curve-color" d="M333.09,218.91c-.39-2.55-.79-6.49-.83-3.44l0,3C332.65,217.93,332.89,218.27,333.09,218.91Z" transform="translate(-181.32 -197)"/><path class="curve-color" d="M308.82,236.15c0,.29.09.6.13.9.12-1,.24-2,.34-2.84C309.15,234.8,309,235.45,308.82,236.15Z" transform="translate(-181.32 -197)"/><path class="curve-color" d="M308.37,248.45l-.58-1.92A8.89,8.89,0,0,0,308.37,248.45Z" transform="translate(-181.32 -197)"/><path class="curve-color" d="M275.51,255.12l-.29,3C275.78,258.13,275.5,256.61,275.51,255.12Z" transform="translate(-181.32 -197)"/><path class="curve-color" d="M353.53,220.61c-.35-1.19-.65-1.69-.92-1.85C353,220.49,353.26,223.07,353.53,220.61Z" transform="translate(-181.32 -197)"/><path class="curve-color" d="M288.39,220.17a5,5,0,0,0-.25,1.81A4.21,4.21,0,0,0,288.39,220.17Z" transform="translate(-181.32 -197)"/><path class="curve-color" d="M351.43,218.7c.06.3.12.46.18.71.32-.48.64-.86,1-.65C352.31,217.46,351.94,216.66,351.43,218.7Z" transform="translate(-181.32 -197)"/><path class="curve-color" d="M230.63,254.73c0-.13-.09-.19-.13-.35C230.52,254.79,230.57,254.8,230.63,254.73Z" transform="translate(-181.32 -197)"/><path class="curve-color" d="M215.12,225.79c.12-.19.33-.21.53-.27C215.54,225.33,215.37,225.36,215.12,225.79Z" transform="translate(-181.32 -197)"/><path class="curve-color" d="M362.56,218.73c.31-.17.07-.33,0,0Z" transform="translate(-181.32 -197)"/><path class="curve-color" d="M363.28,230.57a8.16,8.16,0,0,0-.22,1.44A11.88,11.88,0,0,1,363.28,230.57Z" transform="translate(-181.32 -197)"/><path class="curve-color" d="M347.5,237h0C347.53,237.62,347.52,237.51,347.5,237Z" transform="translate(-181.32 -197)"/><path class="curve-color" d="M362.93,220.11a3.65,3.65,0,0,0-.33-.91A4.13,4.13,0,0,0,362.93,220.11Z" transform="translate(-181.32 -197)"/><path class="curve-color" d="M363,218.7a2.23,2.23,0,0,0,.25.31C363.27,218.52,363.26,218.2,363,218.7Z" transform="translate(-181.32 -197)"/><path class="curve-color" d="M362.13,218.86c.17,0,.33.12.47.34a1.19,1.19,0,0,1,0-.47A1.87,1.87,0,0,1,362.13,218.86Z" transform="translate(-181.32 -197)"/><path class="curve-color" d="M254.28,245.41c0-.09-.05-.16-.08-.28C254,246.38,254.08,246.17,254.28,245.41Z" transform="translate(-181.32 -197)"/><path class="curve-color" d="M324.37,249.56a.66.66,0,0,0,0-.15l0-.1Z" transform="translate(-181.32 -197)"/><path class="curve-color" d="M323.26,251.75c.54-3.69.79-3.23,1.11-2.44l-.13-8.59Z" transform="translate(-181.32 -197)"/><path class="curve-color" d="M282.4,252.68l.78,2.66c-.82,4.41-1.48,2.9-.73,6.66-.05-9.32,2.84-1,2.81-10.3l.52,2c-.14-.09-.16.46-.3.37,1,4.45.62-6.74,1.87-5.43a4.65,4.65,0,0,1,.47,3.16l.92-2.31c.28.18.23,1.79-.05,1.62l1.45-.76v.27c.19-1.46.65-3.73.87-4.69.38,1.33-.18,1-.08,2.15l.79-2.26c.35,2.4-.3,4.75-.86,4.42.82,9.29.65-2.36,2.3,3.07l-.75,1.18c.52,5.29,1.1,3.37,2,6.67-.2-1.73-1.74-8.31-.89-10.63.25.71.58,1,1-.84,0,3.32.47,2.5,1.05,2.31l0,4.39c.62-1.27.56-3.5.92-5.47.7.43.84,3.83,1,6.69,1.1.69-.77-5.45.54-6.28.92,1.68,1.56-.11,2.68-2.74.64,1.51-.12,2.68.11,3.94l.58-3.5a5,5,0,0,1,.06,1.7c.49-1.36.06-4.39.82-5.58.23-4.84,1.53,7.07,2.5,1.59.23,1.25-.13,2.69-.07,4.39a35.58,35.58,0,0,0,2.23-7.44l.88,2.89c-.64-3.3.25-7.19,1-10.38-.22-1.6-.41-3-.54-3.66l1.23-2.34a17.67,17.67,0,0,1-.22,4.06c.09-.36.17-.72.23-1.05.42,1.62.16,4.15-.17,6.6-.13-.89-.27-1.81-.4-2.71a61.9,61.9,0,0,0-.59,8.18,3,3,0,0,1,.4-1.18,10.53,10.53,0,0,0-.11,1.81c0,.46.17-.51.37-1.63l.22,4.89.09-1.94,1.51,3.08c1.17-4.91,2.24-12.15,4.06-14.15-.5,3.58-.19,5.86-.28,10.11-.41-4.51-1.4,1.89-2.3,1,.47.48.34,2.5.21,3.21l1.68-4.08c-.09,3.48.31,2.61.71,4.06-.21-6.88,1.29-4.55,2-6.64,0,2.31-.2,4.66-1,4.08.8,5.19,1.3-8,2.1-3.62-.2.05-.3-.31-.4.86.5-2,1.6-.39,1.29,1.61l-.19.05c1.29.84,4,.13,4.33-5.7,0,.76-.35,7-.46,8.21l2.86-19.57c-.34,5,.13,17-1,19.75.29.72.65,1.56,1.36-.19-.19-.72-.33-7.25,0-7.71.65,5.61.48,3,1.32,7.8-.28-1.09.3-8.93.8-8.67-.11,1.18-.19,7.76-.4,8.57l1.49-7.67c-.36,1.38-.25,6.54,0,8.72-.08-1.51,1.08.18,1.43-.57l-.47-1.81c1.38,1.21,1.76-10.79,3.17-10.34-.23,1.59-.76,9.79-.08,10.78.46-3.94,2.13-18.94,3.52-21.94l.16,2.26,1.07-2.53c-.85,5.91-3,18.36-4.07,23.19.46,1.81.05,2.67.85,2.49.2,2.13-.55,3.2-.79,3.31l1.79,1.43c.09-4.62,1.58-4.58,1.66-8.41l-2.19,4.7c.09-4.59,1.66-13,3-12.17.26,1.85-.58,8.19-.61,9.73.23-1.58,1.36-3,1.44-1.85l-.66,2.44c.66,1.77,1.44-6.05,2.13-1.61.29.3.65,6,.82,3.24-.26-5.28.33-21.54.84-25.48a60.73,60.73,0,0,1,1.62,7.71c.32,4.15-1.19,9.79-.92,13.35a18.24,18.24,0,0,1,.56-3.29c.27,1.09-.31,3.89.4,3.35.33-4.66,1.39.46.51-3.93.74-1.3.68,1,1.48.82-.11-3,1.21-10.23,2-11.53a27.38,27.38,0,0,0,0,3.44c1.38.48,2,2.66,3.32,2.77.06,1.13.61,2.54.24,4.53.23-.81.48-2.39.89-2.48.55,4.08-.93.58-.6,5.46.2-2.71,1.24-3.68,1.9-5.35.05-4.2-1.28-.87-1.94.79.31-5.78,1.63-11.78,3.16-14.38,1.17-1.37.26,3.77.5,3,2,1.12,2.33-10,3.79-5.73.46,3.72-.41,7.32-.42,10-1,1.34-1.21-2.42-1.82-2.3l.63,1.78c-.35,1.21-1,2.11-1.25,1,.37,3.35,3.4.82,4.78,4a10.43,10.43,0,0,0,.78-4l-.53.49c-.27-3,1.2-4.05.65-5.48.8-2,1.77-5.26,2.61-3.52l-.1,4.21c.06-1.23-.45-2.54-.8-1.29.51-1.83,1.07,5.78,1.86.32l-.47-2.95c.81-2.07,1.95-6.47,2.71-5.09-.11-4.16-.23.47-.5-4.43.11,6.07-2.15-.39-1.73,6-.25-5.67-.91-2.45-1.4-7.31-.07,1.39.11,2.67-.55,1.94-.06.4-.17.91-.24,1.21,0,0,0-.06,0-.11l0,.17c0,.2,0,.25,0,.05a11.32,11.32,0,0,1,.23,2.14c-.56,3.15-1.67,3-2.15,4.59-.38-.68.27-1.57.13-3.07l-.72,2.43c.14-3.08-.8-5.17.3-6.92l-.88-.18c-.43-1.76-1.11-2.49-1.63-1.22-.39-.69-1.27,3.35-.76,1L356,220.89l0-.77c-1.36-.47-3.12,4.93-4.4-.71-.51.75-1,1.68-1.77.76V217.5c-.65.89-1.67-2.75-2.06,0-.31-7.19-2.84-1.69-3.84-3l-.19,3.48c-.72-.23-1.46.72-2.41,2.08l-.08,3.07c-.87,2.49-1.89-2.27-3.13-2,.13-1.17.43-.85.62-.13-1.19-7-3.27,4.94-4.4-.16-.37,1.1-.6.71-.8-.07,0,0,.06-.06.08-.15a.15.15,0,0,0-.13-.05c-.13-.53-.26-1.15-.4-1.65a10.24,10.24,0,0,0,.33,1.66c-.26.06-.66.43-1.06,1.19l-.06-3.31s-.05,0-.09.09c-.33-1.23-.35,1.55-.23,4a12,12,0,0,0-.57,2c-.13-5.34-1,1.76-1.27-3.94-.35,2.77-2,2-2.34,7.85,0-.76-.09-1.13.11-1.17-.4-.68-.8-1.35-1.22.28l-.06-4.21L325.56,229a15.73,15.73,0,0,1,0-7.28c-1.47,4.94-1.14,1.85-2.4,6.75l.12-2.71c-.4.09-1.14,3.71-1.33,1.47-.79-5.18-4.47-.81-6.72-5.66.32,8-1-3.61-1.23,2.6-.1-1.9-.41-3,0-4.61-1.22,1.85-1.76-3-2.65,2.2-.12-1.9.29-2.77.18-3.89-.1.41-.4,1.64-.51.51a5.62,5.62,0,0,1,.39-2.41c-1.23.31-1.42,6.13-1.57,11.6-.58-2.6-.9-2.23-1.38,1.35-.19-1.79-.53-3.67.23-4.3-.42-.27-2.58-2.65-2.65,1.73-.13-1.11-.6-.33-.71.17-.95-.27-1-.66-2-.26l.25.72c-.39,5.28-.78,1.18-1.53,1.81l0-.54c-1.72-3.81-.75,1.83-2.45-2.52l.09,3.29c-.16,7.07-1.5-4.17-2.49-1.47l.36,1.88c-.54,2.42-1.53-9.62-2.08-10.5a2.31,2.31,0,0,1,.35-1.45c-1.45-4.17-.18,4.32-1.24,5.32-.2-2.33.23-5.91-.49-6.35-.37-1.87-2,7.55-3.05,3.1a11.3,11.3,0,0,1,0,4.93c-.74.65-2.1-6.75-2.73-1.09a7,7,0,0,1-.15-1.4c-.57,1.46-1.86,2.44-2.17,5.5-.68-11.35-3.5,5.58-3.64-4.9l-1.77.58,0-1.07c-1.15-.68-1.5,1.85-1.85,4.37a5.91,5.91,0,0,1-.1-2.23c-1.7-2.08-1.86-1.63-3.13,3.62l-.22-3.39c-.33,2-2.54-5.27-4.07-1.27a7.76,7.76,0,0,1,.14-1.53c-1.71,4-4.69-9.31-5,3.1l-1.1,3.09c1.58.91-.06,5.38.65,7.41-.59.75-1.7-3.68-1-4.34l.13.62c.07-6.46-2-2.22-2.12-6.62-3.06.43-6.2-3-9.11-3.17l.56,5-1-.25c-.31-1.15-.53-3.9.2-3.73-.51-2.82-1.1,2.44-1.07,3.53-1.5-2,.28-5.87-.15-6l-.57.4.16.58c-.38,2.07-.33,4.24-1.2,4-.59-1-.42-3.08-.65-3.27,0-.35-.1-.51-.34-.12l-1.29-.37.7,3.93c-.46,2-1.19-.15-.39,4.3-1.2-6.88-4.84-2.25-5.48-4.35-.62,2.93-1.4,2.92-2.37,2.63.28.81.67,5.25-.18,4.75-.23-9.19-1.74-3.89-2.8-10.46.86,4.35-2.29,1.22-1,7.38-.73-.7-.25-3.43-.91-5.56-1.42,3.64-3.77-2.08-5.74-.74a19.8,19.8,0,0,1,.2,4.85l-1.48-5.95c-.36.62.11,7-.91,2.85.17,1,.43,2.52.19,2.92-2.19-2.79-4.15-1.45-6.14-.74s-4,.8-6.52-4.55c.74,2.29.39,2.55,0,2.67.32.54.24,3,.43,4.6L214,225.73c.07,4.55-1.79.45-1.59,4.79l.46-.82c-.27,5.16,2,11.26,2.4,17.81.3-5.86,2.77,8.43,3.37,0,.39,1.31-.07,2.13.2,3.64.1-2.84.44-3.45,1.27-2.25l0,.7c2-.85,3.08,1.84,5.5,3.51l-.41-3.22c.52.4.7,1.4,1,2.2.2-5-1.4-.18-1.29-5.63,1.14,6.54,3.49-.15,4.46,7.32.76,0-.48-3.74.28-3.75l.34,2v-2.62c.52.4.95,2.91,1.08,4.63-.13-.19-.3.51-.42.66.8,2.34,1.75-.94,2-.18l-.81-1.19c1.94-2.05,4.62.44,6.36-3.79L238,248c1.36-2.92,1.33,1.62,2.92.21l0,.37c.25-1.55.66-2.34,1.12-2.2-.32,1.82,1,3.44.56,5.46,1.48-3.14.68-2.44,1.46-8.19l.39,2.52c.25-2.31.21-3.53,1-4.24-.57,2.23.74,3.84.13,6.77,2,5.45,2.32-5.74,3.54,2.34.45-7.07-1.72-3.83-1.35-5.36-.5-2.28.4-5.28,1-4.6.57.13,1.4,8.95,2.8,8.75-.14,0-.13.5-.27.48.62,1.77.92-2.48,1.71.41.16-4.27.85.2.7-5.23l-1.24,1.32c.67-1.45,1.08-7.83,2.43-4.81a18.24,18.24,0,0,1-.55,3.37c.42,1.58.63-1.1,1.07.53.14,5.44-1.52,1.25-2.12,5.43.48,2.27,1.31-4,1.18,1.89.23-7.5,1.42.89,2.13-4.87l.08,3.26c.13-.52.37-2.07.65-2l-.32,4.24c.62-3.63,1.61,3.07,2.27,1.09-1.54.16-.51-3.91-1.26-6.25,1.74-4.43,1.44,8.47,3.51,6.83-.27.47-1.16-1.91-.76-3.44A10.1,10.1,0,0,1,262,255.7c1.39-.72-.34-3.33.19-5.35.63,3.94.64-1.64,1.22-2.93l.12,3.3c1.69,2.07.19-6.9,1.74-4.39l-.46,4.61.72-1.21,0,3.76c.73-2.82,1-2.1,1.85-1.08-.26-2.32-.09-6,.63-6.13.55,1.95-.18,3.15.83,2.64-.17,2.08-.34,4.69-.88,1.66,0,1.08-.16,2.08-.17,3.15.59,2.24,1.33.46,1.7.42a1.13,1.13,0,0,1-.42-.76l1.33-4.62a8,8,0,0,1,0,3.22c.29-.37.45-1.89.88-2.18,0,2.69.07,5.46-.51,6.74l1.31-3c.13,1.16.8,3.19.65,4.18.81,1.57,1.76-5.26,2.84-3.2a3.8,3.8,0,0,1,.34-1.41c1,.58,1.91,3.86,3,.15l.74,4.8c.87-1.11-1-6.05.46-7.9,1-1.56.47,4.1.87,5.44.47-2.44,1.31-7.4,2.35-3.49C283,253,282.7,252.32,282.4,252.68Zm11.05-2.26c-.21.69-.62,2.84-.79.89C292.88,247.52,293.08,249.33,293.45,250.42Zm16.95-7.9c-.17,1.09-.41.55-.68-.71C309.93,241.54,310.16,241.67,310.4,242.52Zm48.67-21.31,0,.16C358.62,220.06,358.77,220.58,359.07,221.21Zm.94,1.49a4.23,4.23,0,0,0,.13-1.37c-.12.83-.35.87-.6.62C359.56,222.82,359.66,223.43,360,222.7Zm-109.95.61.24.85C249.89,225.14,250,224.27,250.06,223.31Z" transform="translate(-181.32 -197)"/><path class="curve-color" d="M308.43,247a17.37,17.37,0,0,1-.07-1.8A4.09,4.09,0,0,0,308.43,247Z" transform="translate(-181.32 -197)"/><path class="curve-color" d="M275.56,254.56s0,0,0,0c0,.2,0,.4,0,.6Z" transform="translate(-181.32 -197)"/><path class="curve-color" d="M342.89,249.91a6.74,6.74,0,0,1-.32-1.73C342.52,249,342.59,249.68,342.89,249.91Z" transform="translate(-181.32 -197)"/><path class="curve-color" d="M365.8,217.45l-.72.81c.33-.14.4.59.53,1.13C365.64,218.62,365.59,217.49,365.8,217.45Z" transform="translate(-181.32 -197)"/><path class="curve-color" d="M370.05,238.26c.12-.4.2,0,.33-.44l.08-1.53C370.05,236.36,369.68,237.58,370.05,238.26Z" transform="translate(-181.32 -197)"/><path class="curve-color" d="M365.68,228.46c-.14,2.78.33,1.87.82,1.38,0,0-.05,0-.08,0C366.82,226,366.25,227.22,365.68,228.46Z" transform="translate(-181.32 -197)"/><path class="curve-color" d="M366.62,229.76c.15-.12.29-.19.42,0C367.2,228.16,366.89,229.38,366.62,229.76Z" transform="translate(-181.32 -197)"/><path class="curve-color" d="M361.42,220.94c.17.73.36-3.54.41-2.4C362.29,215,360.11,222.72,361.42,220.94Z" transform="translate(-181.32 -197)"/><polygon class="curve-color" points="184.11 40.64 184.18 37.2 183.74 39.94 184.11 40.64"/><path class="curve-color" d="M362,234.88l.66,1a2.68,2.68,0,0,1,.27-1.16C362.51,234.58,362.07,233.86,362,234.88Z" transform="translate(-181.32 -197)"/><path class="curve-color" d="M363,234.72c.23.08.46,0,.62-.53A1,1,0,0,0,363,234.72Z" transform="translate(-181.32 -197)"/><polygon class="curve-color" points="183.06 41.6 182.89 40.87 182.4 40.59 183.06 41.6"/><path class="curve-color" d="M354.26,233.76l-.84.94c-.15,1.17,0,1.9.35,1.45A5.69,5.69,0,0,0,354.26,233.76Z" transform="translate(-181.32 -197)"/><path class="curve-color" d="M356.11,243.29a15.36,15.36,0,0,1-.19-2.63l-.27,4.25Z" transform="translate(-181.32 -197)"/><path class="curve-color" d="M353.77,244.15c-.14,1.18-1.32,3.33-.32,3.12C353.6,246.1,354.44,245.16,353.77,244.15Z" transform="translate(-181.32 -197)"/><polygon class="curve-color" points="160.88 41.18 161.08 41.14 161.36 34.16 160.88 41.18"/><path class="curve-color" d="M331.17,254.48c.86,1.7.36-4.3,1.12-2.19.28-1.64-.62-1.72-.35-3.14C331.32,250.87,331.07,249.88,331.17,254.48Z" transform="translate(-181.32 -197)"/><path class="curve-color" d="M331.94,249.15a9.23,9.23,0,0,0,.32-1.05A5.37,5.37,0,0,0,331.94,249.15Z" transform="translate(-181.32 -197)"/><polygon class="curve-color" points="31.26 25.24 30.52 23.83 31.11 26.14 31.26 25.24"/><path class="curve-color" d="M211.85,227.49l-.53-4.42,0,4C211.42,226.91,211.66,226.5,211.85,227.49Z" transform="translate(-181.32 -197)"/><path class="curve-color" d="M295.13,259.39l0-1.07c-.09-1.16-.23-1.25-.51-1.43Z" transform="translate(-181.32 -197)"/><polygon class="curve-color" points="105.8 59.12 105.94 59.21 105.64 55.19 105.8 59.12"/><path class="curve-color" d="M280.5,261.34c.28.16.58-.74.86-.58C280.78,261.5,280.33,256.32,280.5,261.34Z" transform="translate(-181.32 -197)"/></svg>