<svg id="圖層_1" data-name="圖層 1" xmlns="http://www.w3.org/2000/svg" viewBox="0 0 223.01 106.75"><defs><style>.bg-color{fill:#efeeef;}.curve-color{fill:#efe425;}</style></defs><title>nav5</title><rect class="bg-color" width="223.01" height="106.75"/><path class="curve-color" d="M227.68,428.15c-.21-.25-.08,2.62-.1,3.14A10.67,10.67,0,0,0,227.68,428.15Z" transform="translate(-186.02 -368.36)"/><polygon class="curve-color" points="44.96 53.19 44.92 54.37 45.37 51.49 44.96 53.19"/><path class="curve-color" d="M234.19,421.54c-.39-4.88-1.15.82-1.75-.91l-.12-1.11-.18,3.94C232.82,422.82,233.68,420.19,234.19,421.54Z" transform="translate(-186.02 -368.36)"/><path class="curve-color" d="M236.1,432.1c-.14-1.9.34-1.65-.41-.59,0,.24.06.33.08.48C235.84,432,235.94,432,236.1,432.1Z" transform="translate(-186.02 -368.36)"/><path class="curve-color" d="M235.77,432c-.33.15.25,1.6,0,0Z" transform="translate(-186.02 -368.36)"/><path class="curve-color" d="M237.3,430.87l-.41,1.71c.12,1.13.51,1.37.38,2.19C237.71,433.83,237.59,432.72,237.3,430.87Z" transform="translate(-186.02 -368.36)"/><path class="curve-color" d="M237.66,427.29l-.22.73C237.49,428.49,237.55,428.65,237.66,427.29Z" transform="translate(-186.02 -368.36)"/><path class="curve-color" d="M237,429.55l.46-1.53c-.08-.79-.11-2.38-.21.55C237.24,427.12,237.17,428.51,237,429.55Z" transform="translate(-186.02 -368.36)"/><path class="curve-color" d="M236.7,428.8a5.44,5.44,0,0,1-.19-3.42C235.67,426.07,235.86,429.5,236.7,428.8Z" transform="translate(-186.02 -368.36)"/><path class="curve-color" d="M234.26,416.48l-.36-1.43-.26,1.65C233.77,415.88,234.31,418,234.26,416.48Z" transform="translate(-186.02 -368.36)"/><path class="curve-color" d="M240.1,433.36c0-1-.2-2.77-.25-4.1l-.31,1.2A9.85,9.85,0,0,1,240.1,433.36Z" transform="translate(-186.02 -368.36)"/><path class="curve-color" d="M239.85,429.26l.46-1.8C239.87,427.26,239.8,428.11,239.85,429.26Z" transform="translate(-186.02 -368.36)"/><polygon class="curve-color" points="51.62 53.5 50.88 57.27 51.77 53.45 51.62 53.5"/><polygon class="curve-color" points="55.94 65.1 55.7 67.52 56.14 63.87 55.94 65.1"/><path class="curve-color" d="M243.19,433c-.18,2,.33,3.38.13,4.61a12.57,12.57,0,0,0,.83-3.63C243.89,434.87,243.59,434.65,243.19,433Z" transform="translate(-186.02 -368.36)"/><path class="curve-color" d="M244.55,431.75c-.13.48-.26,1.34-.4,2.25A13.28,13.28,0,0,0,244.55,431.75Z" transform="translate(-186.02 -368.36)"/><path class="curve-color" d="M241.15,428a13.15,13.15,0,0,0,.43,3l-.24-2.93Z" transform="translate(-186.02 -368.36)"/><path class="curve-color" d="M241.33,427.91V428a3.93,3.93,0,0,1,.42.16A4.3,4.3,0,0,1,241.33,427.91Z" transform="translate(-186.02 -368.36)"/><path class="curve-color" d="M241.1,428h.05C241.12,427.68,241.11,427.58,241.1,428Z" transform="translate(-186.02 -368.36)"/><path class="curve-color" d="M239,424.49c.26-1.64.83-3.41.21-5.9C239,420.6,239.36,422,239,424.49Z" transform="translate(-186.02 -368.36)"/><path class="curve-color" d="M240.8,424.29l-.53-.66a17.62,17.62,0,0,1,0,2.72Z" transform="translate(-186.02 -368.36)"/><polygon class="curve-color" points="55.02 55 54.78 55.93 54.98 56.18 55.02 55"/><path class="curve-color" d="M243.62,429c.21-1.28.45-1.39.72-1.6-.3-.57-.61-.88-.91-.87C243.41,427.48,243.3,429.13,243.62,429Z" transform="translate(-186.02 -368.36)"/><path class="curve-color" d="M242.5,428.22l.05-.17C242.52,427.81,242.49,427.73,242.5,428.22Z" transform="translate(-186.02 -368.36)"/><path class="curve-color" d="M247.06,427.41c0-.17,0-.36-.05-.54v.51Z" transform="translate(-186.02 -368.36)"/><path class="curve-color" d="M243.38,426c-.24-.56-.36.15-.47,1.06.16-.3.33-.49.52-.52C243.45,426.14,243.45,425.86,243.38,426Z" transform="translate(-186.02 -368.36)"/><path class="curve-color" d="M245.29,430.36c-.13-.61-.26-1.12-.41-1.6C245,429.68,245.26,431.13,245.29,430.36Z" transform="translate(-186.02 -368.36)"/><path class="curve-color" d="M242.64,428.86a1.3,1.3,0,0,1,0,.13C242.69,429.62,242.68,429.32,242.64,428.86Z" transform="translate(-186.02 -368.36)"/><path class="curve-color" d="M242.64,428.86a16.94,16.94,0,0,0,.27-1.79,3.7,3.7,0,0,0-.36,1C242.58,428.26,242.62,428.58,242.64,428.86Z" transform="translate(-186.02 -368.36)"/><path class="curve-color" d="M247.67,408.58c0,2.72-.57,5.24-1.12,2.33-.48,2,0,11,.46,16a11.79,11.79,0,0,1,.48-3.89c-.19-1.48-1.18-3.45-.78-5.92.67-1.4.57,1,.92,2.39-.32-3.38.81-4.93.61-9.91l-.58,1.76A16.49,16.49,0,0,0,247.67,408.58Z" transform="translate(-186.02 -368.36)"/><path class="curve-color" d="M246,426.61l-.21.34a16.76,16.76,0,0,1,.77,3.67,12.91,12.91,0,0,0,.41-3.24l-1-.37Z" transform="translate(-186.02 -368.36)"/><path class="curve-color" d="M244.89,427c.12-3,.61-4.22.25-7.42-.62.21-.4,2.47-.75,3.77,1-.76-.26,1.65.48,3.31a1.49,1.49,0,0,1-.53.79,7.73,7.73,0,0,1,.54,1.34l0-.18h0v0c0-.37-.07-.59,0-.38,0,0,0-.05,0-.06,0-.41,0-.77,0-1.12.29.61.05.77,0,1.12,0,.14,0,.29,0,.44v0l1-1.63C245.61,426.54,245.35,426.62,244.89,427Z" transform="translate(-186.02 -368.36)"/><path class="curve-color" d="M239.61,412.23a5.71,5.71,0,0,1,0,.68C239.71,412.55,239.73,412.3,239.61,412.23Z" transform="translate(-186.02 -368.36)"/><path class="curve-color" d="M240.05,414c-.06.42-.1,1.6-.35,1.3a10,10,0,0,1,0-2.39,7,7,0,0,0,0,3.56l.06-.4a23.18,23.18,0,0,1,.94,5.09C240.5,418.5,240.37,416.61,240.05,414Z" transform="translate(-186.02 -368.36)"/><path class="curve-color" d="M242.49,419.73l.82-1.46-.46-2.55,0,1.53C242.4,416.66,242.54,418.55,242.49,419.73Z" transform="translate(-186.02 -368.36)"/><polygon class="curve-color" points="61.15 60.51 61.08 63.64 61.51 59.22 61.15 60.51"/><polygon class="curve-color" points="62.23 60.13 62.22 62.84 62.48 61.2 62.23 60.13"/><path class="curve-color" d="M311.36,397l.34-.73A3,3,0,0,0,311.36,397Z" transform="translate(-186.02 -368.36)"/><path class="curve-color" d="M309.51,396.65l-.18,1.32A3.65,3.65,0,0,0,309.51,396.65Z" transform="translate(-186.02 -368.36)"/><path class="curve-color" d="M274.53,428.27c.29,2.54.59,6.48.62,3.42l0-3C274.85,429.25,274.67,428.91,274.53,428.27Z" transform="translate(-186.02 -368.36)"/><path class="curve-color" d="M293.32,411.23l-.05-.9c-.15,1-.29,1.95-.41,2.82C293,412.57,293.15,411.92,293.32,411.23Z" transform="translate(-186.02 -368.36)"/><path class="curve-color" d="M294.31,399l.37,1.94A10.24,10.24,0,0,0,294.31,399Z" transform="translate(-186.02 -368.36)"/><path class="curve-color" d="M322,395.13l.72-3C322.22,392.12,322.23,393.66,322,395.13Z" transform="translate(-186.02 -368.36)"/><path class="curve-color" d="M259.26,427.32c.3,1.16.55,1.65.76,1.79C259.65,427.41,259.35,424.85,259.26,427.32Z" transform="translate(-186.02 -368.36)"/><path class="curve-color" d="M307.43,428.37a7,7,0,0,0,.39-1.78A5.59,5.59,0,0,0,307.43,428.37Z" transform="translate(-186.02 -368.36)"/><path class="curve-color" d="M260.9,429.1c-.06-.29-.11-.44-.16-.69-.23.5-.45.9-.72.7C260.29,430.39,260.6,431.17,260.9,429.1Z" transform="translate(-186.02 -368.36)"/><path class="curve-color" d="M358.74,405.18c0,.14,0,.21,0,.37C358.84,405.16,358.81,405.13,358.74,405.18Z" transform="translate(-186.02 -368.36)"/><path class="curve-color" d="M359.74,436.93a.48.48,0,0,1-.45.1C359.29,437.24,359.41,437.26,359.74,436.93Z" transform="translate(-186.02 -368.36)"/><path class="curve-color" d="M252.6,429.74c-.23.2,0,.33,0,0Z" transform="translate(-186.02 -368.36)"/><path class="curve-color" d="M251.38,418a9.69,9.69,0,0,0,.08-1.44A12.1,12.1,0,0,1,251.38,418Z" transform="translate(-186.02 -368.36)"/><path class="curve-color" d="M263.23,410.59h0C263.19,410,263.2,410.12,263.23,410.59Z" transform="translate(-186.02 -368.36)"/><path class="curve-color" d="M252.24,428.39a4,4,0,0,0,.3.88A4.81,4.81,0,0,0,252.24,428.39Z" transform="translate(-186.02 -368.36)"/><path class="curve-color" d="M252.3,429.8a3.43,3.43,0,0,0-.2-.29C252.07,430,252.1,430.32,252.3,429.8Z" transform="translate(-186.02 -368.36)"/><path class="curve-color" d="M252.91,429.58c-.13.05-.25-.09-.37-.31a1.56,1.56,0,0,1,.06.47A1,1,0,0,1,252.91,429.58Z" transform="translate(-186.02 -368.36)"/><path class="curve-color" d="M337.37,408.23a2.62,2.62,0,0,0,0,.29C337.84,407.35,337.7,407.53,337.37,408.23Z" transform="translate(-186.02 -368.36)"/><path class="curve-color" d="M281.39,397.53s0,.1,0,.14l0,.1Z" transform="translate(-186.02 -368.36)"/><path class="curve-color" d="M282.32,395.35c-.49,3.68-.68,3.22-.93,2.42v8.59Z" transform="translate(-186.02 -368.36)"/><path class="curve-color" d="M315.93,396.67l-.3-2.73c1.25-4.29,1.63-2.72,1.47-6.52-1.16,9.25-2.54.69-3.65,9.93l-.19-2c.11.1.19-.45.29-.34-.31-4.52-1.31,6.63-2.16,5.2a5.44,5.44,0,0,1,0-3.19l-1,2.21c-.21-.2,0-1.81.21-1.6l-1.26.61,0-.28c-.31,1.44-.91,3.65-1.18,4.58-.18-1.36.24-1,.27-2.13l-.86,2.18c0-2.42.72-4.71,1.14-4.31.27-9.33-.76,2.27-1.58-3.25l.73-1.12c.08-5.3-.59-3.43-1-6.77,0,1.73.68,8.39-.25,10.64-.14-.72-.38-1.08-.93.76.29-3.3-.16-2.52-.65-2.37l.41-4.37c-.62,1.22-.77,3.45-1.23,5.39-.53-.48-.37-3.87-.28-6.74-.86-.77.19,5.48-1,6.22-.62-1.74-1.3,0-2.39,2.55-.42-1.55.29-2.67.19-3.94l-.72,3.46a6.11,6.11,0,0,1,.06-1.71c-.49,1.32-.35,4.37-1,5.51-.5,4.8-.77-7.12-1.9-1.69-.11-1.26.27-2.68.32-4.38a40.33,40.33,0,0,0-2.23,7.34l-.55-2.92c.33,3.32-.59,7.17-1.36,10.33.09,1.6.16,3,.23,3.67l-1.06,2.29a23,23,0,0,1,.37-4c-.09.38-.17.74-.23,1a25.27,25.27,0,0,1,.46-6.59l.18,2.73c.38-2.65.78-5.59.89-8.15a3.69,3.69,0,0,1-.39,1.16,11.76,11.76,0,0,0,.18-1.8c0-.46-.16.5-.38,1.61l.07-4.89-.17,1.93-1.08-3.13c-1.17,4.87-2.32,12-3.8,14,.52-3.57.36-5.85.59-10.09.16,4.5,1.18-1.86,1.88-.9-.36-.49-.17-2.51,0-3.21l-1.52,4c.2-3.47-.15-2.61-.43-4.06-.07,6.87-1.19,4.53-1.81,6.61.07-2.31.3-4.65.93-4.07-.49-5.2-1.29,8-1.79,3.6.16-.05.23.31.34-.86-.46,2-1.29.38-1-1.62l.16,0c-1-.86-3.21-.18-3.57,5.64,0-.75.39-7,.49-8.2l-2.51,19.55c.33-5,.07-17,1-19.75-.23-.72-.52-1.57-1.1.19a49.25,49.25,0,0,1-.05,7.7,69.76,69.76,0,0,0-1-7.77c.23,1.08-.28,8.93-.67,8.67.09-1.17.18-7.75.35-8.56l-1.21,7.68a55.58,55.58,0,0,0,.05-8.72c.06,1.51-.87-.16-1.16.6l.38,1.79c-1.11-1.19-1.37,10.82-2.47,10.39.17-1.59.55-9.79,0-10.78-.35,3.94-1.53,19-2.54,22l-.14-2.26-.78,2.56c.54-5.94,2.07-18.41,2.91-23.26-.39-1.8-.07-2.67-.71-2.48-.19-2.12.41-3.2.6-3.32l-1.48-1.4c0,4.61-1.22,4.6-1.22,8.44l1.7-4.74c0,4.6-1.16,13.05-2.18,12.24-.24-1.84.32-8.21.32-9.75-.16,1.59-1,3-1.12,1.9l.48-2.46c-.56-1.74-1,6.1-1.67,1.69-.24-.29-.66-5.94-.74-3.21.35,5.26.23,21.54-.06,25.49a77.57,77.57,0,0,1-1.44-7.64c-.35-4.13.68-9.83.38-13.38a23.69,23.69,0,0,1-.36,3.31c-.24-1.08.14-3.9-.41-3.33-.13,4.67-1.12-.41-.29,3.95-.55,1.33-.57-1-1.2-.77.18,3-.62,10.27-1.16,11.6a33,33,0,0,0-.13-3.44c-1.08-.44-1.66-2.55-2.68-2.59a18.15,18.15,0,0,1-.37-4.52c-.15.83-.29,2.42-.6,2.53-.61-4,.7-.63.24-5.48,0,2.71-.82,3.75-1.27,5.44.15,4.2,1,.81,1.49-.89,0,5.79-.78,11.85-1.82,14.53-.84,1.44-.37-3.74-.52-2.92-1.58-1-1.3,10.11-2.61,5.94-.54-3.69-.06-7.34-.19-10,.68-1.39,1.06,2.34,1.52,2.19l-.58-1.74c.22-1.23.67-2.16.92-1.09-.45-3.31-2.67-.64-3.91-3.68a12.84,12.84,0,0,0-.39,4l.38-.52c.38,3-.69,4.13-.19,5.51-.5,2.09-1.05,5.39-1.79,3.71l-.17-4.2c0,1.23.49,2.5.69,1.22-.29,1.86-1.17-5.69-1.45-.18l.54,2.91c-.5,2.12-1.09,6.59-1.74,5.27.34,4.15.14-.48.65,4.38-.46-6,1.63.24.94-6.11.52,5.63.83,2.38,1.47,7.19,0-1.39-.23-2.65.31-2,0-.4.07-.92.1-1.22l0,.1,0-.16c0-.21,0-.25,0-.06a14.54,14.54,0,0,1-.29-2.11c.24-3.18,1.09-3.09,1.37-4.74.33.65-.12,1.59.06,3.07l.42-2.47c.06,3.08.87,5.12.14,6.92l.67.13c.4,1.73,1,2.42,1.28,1.12.31.67.78-3.41.51-1l1.05-1.92V428c1,.39,2.13-5.1,3.32.46.35-.78.71-1.73,1.29-.86l.11,2.66c.45-.93,1.32,2.68,1.53-.1.44,7.18,2.13,1.59,2.91,2.87l.06-3.48c.54.2,1.06-.78,1.75-2.17v-3.08c.62-2.52,1.47,2.2,2.38,1.9-.08,1.17-.3.86-.46.15,1,6.95,2.39-5,3.29.07.27-1.11.44-.72.6.05,0,0-.05.07-.07.16a.09.09,0,0,0,.1,0c.1.53.2,1.15.31,1.65a15.37,15.37,0,0,0-.25-1.66c.19-.06.48-.43.78-1.2l.05,3.31s0,0,.07-.09c.24,1.22.25-1.56.16-4.05a14.76,14.76,0,0,0,.43-2c.09,5.33.79-1.78,1,3.91.26-2.77,1.47-2.05,1.79-7.88,0,.76.07,1.13-.09,1.17.3.67.6,1.34.93-.29v4.2l.87-5.63a20.74,20.74,0,0,1-.06,7.28c1.16-4.92.87-1.84,1.9-6.73l-.14,2.72c.31-.09.93-3.71,1-1.46.48,5.18,3.36.85,4.88,5.71,0-8,.64,3.61,1-2.57a18.17,18.17,0,0,1-.17,4.6c1-1.8,1.16,3.07,2.05-2.11,0,1.91-.34,2.76-.31,3.89.09-.41.37-1.63.4-.5a7.81,7.81,0,0,1-.4,2.39c.9-.26,1.33-6.07,1.71-11.53.32,2.62.56,2.26,1.12-1.3.05,1.8.2,3.68-.4,4.29.31.28,1.77,2.74,2.09-1.64,0,1.12.42.35.54-.15.7.31.73.7,1.47.33l-.15-.72c.65-5.26.67-1.15,1.28-1.73l0,.54c1,3.91.7-1.78,1.65,2.67l.18-3.29c.67-7,.81,4.26,1.77,1.62l-.12-1.89c.61-2.38.34,9.68.65,10.59a3.2,3.2,0,0,1-.38,1.42c.68,4.24.5-4.29,1.37-5.22-.06,2.33-.7,5.87-.22,6.35.08,1.89,2.2-7.4,2.51-2.89a15.32,15.32,0,0,1,.51-4.9c.63-.58.83,6.9,1.9,1.34a10.65,10.65,0,0,1,0,1.4c.57-1.4,1.63-2.26,2.21-5.27-.84,11.34,3.29-5.2,2.1,5.21l1.37-.42-.16,1.06c.75.77,1.34-1.66,2-4.12a8.35,8.35,0,0,1-.24,2.22c.95,2.27,1.1,1.84,2.82-3.19l-.34,3.38c.55-1.92,1,5.52,2.75,1.76a12,12,0,0,1-.35,1.49c.95-1.89,1.41.56,1.9,1.94s1,1.76,2.21-4.31l1.37-2.87c-1-1.14,1-5.27.87-7.38.59-.64.6,3.89-.07,4.42v-.63c-1.24,6.34,1.07,2.5.31,6.83,2.3.07,3.84,3.92,5.81,4.63l.72-5,.67.43c0,1.19-.51,3.9-1,3.6-.29,2.84,1.32-2.16,1.55-3.23.61,2.2-1.54,5.66-1.25,5.84l.48-.29,0-.59c.74-1.94,1.21-4.06,1.78-3.69.19,1.06-.43,3.07-.31,3.29-.08.35-.06.52.2.19l.81.6.46-3.95c.81-1.83.82.38,1.33-4.1-.41,3.45.3,4.23,1.12,4.42s1.71-.15,1.66.94c1.21-2.68,1.76-2.49,2.37-2,0-.84.95-5.2,1.43-4.52-2.38,8.88.16,4.15-1,10.68.64-4.36,1.92-.65,2.79-6.84.32.84-.81,3.34-1,5.52,2.07-3.18,1.95,2.9,3.65,2.14a27.66,27.66,0,0,1,1.39-4.64l-.88,6c.43-.49,2.16-6.62,1.52-2.45a10.61,10.61,0,0,1,.81-2.82c.59,3.24,2.34,2.45,3.93,2.37s3,.5,2.61,6.19c.38-2.34.7-2.48,1-2.46a41.52,41.52,0,0,1,1.44-4.39l-.29,4.69c1.69-4.22,1.34.12,2.9-3.93l-.63.61c2.21-4.66,3.05-11,5.27-17.16-2.48,5.3,1.16-8.7-2.51-1.14.2-1.35.85-1.95,1.22-3.43-1.15,2.59-1.63,3-1.81,1.65l.28-.64c-1.82.13-1.65-2.78-3-5.1l-.82,3.14a5.94,5.94,0,0,1,0-2.35c-1.88,4.58,1,.58-1,5.66,1.4-6.48-2.71-.88-1-8.19-.6-.22-.87,3.66-1.46,3.45l.4-2-.88,2.48c-.27-.53.22-3,.67-4.7,0,.23.41-.38.56-.49.12-2.45-1.71.36-1.68-.44l.26,1.37c-2.17,1.36-3.55-1.82-6.2,1.82l-.26,1.52c-1.91,2.45-.56-1.87-2.23-.92l.14-.35c-.63,1.42-1.17,2.08-1.49,1.82.76-1.66.17-3.55,1.08-5.37-2.05,2.64-1.23,2.17-3.39,7.5l.37-2.52c-.81,2.17-1.1,3.34-1.91,3.83,1-2,.44-3.88,1.69-6.55-.21-5.79-3.31,5-2.22-3.07-2.14,6.75.39,4.08-.29,5.47-.2,2.31-1.65,5-1.93,4.26-.41-.25,1.13-9-.06-9.07.11.06.22-.46.33-.41-.07-1.85-1.33,2.21-1.27-.76-1.14,4.12-.64-.38-1.79,4.93l1.29-1c-.88,1.27-2.66,7.39-3,4.17a21,21,0,0,1,1.2-3.16c0-1.63-.75.93-.73-.74,1.12-5.32,1.49-.9,2.94-4.84.14-2.31-2,3.62-.51-2.09-1.91,7.25-1-1.16-2.83,4.29l.67-3.18c-.22.47-.77,1.93-1,1.8l1.2-4.06c-1.3,3.41-.65-3.34-1.63-1.52,1.3.12-.42,3.91-.32,6.34-2.33,4,.64-8.53-1.43-7.3.32-.41.56,2.08-.08,3.5a11.82,11.82,0,0,1-.36-3.74c-1.29.47-.39,3.33-1.23,5.22.27-4-.85,1.49-1.56,2.66l.54-3.26c-1-2.32-1.48,6.74-2.24,4l1.25-4.44-.82,1.06.74-3.69c-1.13,2.64-1.22,1.89-1.73.74-.21,2.32-1,5.91-1.61,5.92-.1-2,.7-3.07-.2-2.74.5-2,1.11-4.55,1-1.48.21-1.06.51-2,.71-3.07-.08-2.3-1-.69-1.32-.71a1.26,1.26,0,0,1,.21.82l-1.89,4.36a9.9,9.9,0,0,1,.58-3.17c-.3.32-.69,1.8-1.09,2,.48-2.65.86-5.4,1.57-6.58l-1.6,2.79c.09-1.17-.14-3.26.15-4.22-.44-1.66-2.32,4.95-2.89,2.77a4.22,4.22,0,0,1-.5,1.35c-.71-.72-1-4.09-2.43-.56l.05-4.86c-.88,1,0,6.13-1.47,7.77-1.06,1.42.17-4.13,0-5.49-.73,2.36-2.06,7.19-2.4,3.21C315.52,396.26,315.64,397,315.93,396.67Zm-9.33,1.18c.24-.68.79-2.78.74-.83C306.79,400.78,306.8,399,306.6,397.85Zm-14.21,7c.19-1.09.36-.54.51.73C292.72,405.8,292.55,405.66,292.39,404.81ZM255.08,427c0-.06,0-.09,0-.16C255.47,428.16,255.34,427.65,255.08,427Zm-.78-1.43a5.32,5.32,0,0,0,0,1.38c0-.84.22-.89.42-.66C254.63,425.45,254.52,424.86,254.3,425.6Zm81,4.95,0-.87C335.89,428.81,335.63,429.63,335.34,430.55Z" transform="translate(-186.02 -368.36)"/><path class="curve-color" d="M294.19,400.38c0,.56,0,1.17,0,1.8A5.16,5.16,0,0,0,294.19,400.38Z" transform="translate(-186.02 -368.36)"/><path class="curve-color" d="M321.86,395.67s0,0,0,.05c.05-.2.08-.4.11-.59Z" transform="translate(-186.02 -368.36)"/><path class="curve-color" d="M266.48,397.56a8.19,8.19,0,0,1,.3,1.71A2.66,2.66,0,0,0,266.48,397.56Z" transform="translate(-186.02 -368.36)"/><path class="curve-color" d="M250.25,431.26l.48-.86c-.23.16-.33-.56-.45-1.09A6.51,6.51,0,0,1,250.25,431.26Z" transform="translate(-186.02 -368.36)"/><path class="curve-color" d="M245.68,410.83c-.06.41-.15,0-.22.46l0,1.54C245.81,412.72,246,411.48,245.68,410.83Z" transform="translate(-186.02 -368.36)"/><path class="curve-color" d="M249.68,420.27c-.07-2.78-.37-1.83-.72-1.31,0,0,0,0,.06,0C249,422.85,249.32,421.56,249.68,420.27Z" transform="translate(-186.02 -368.36)"/><path class="curve-color" d="M248.88,419.05c-.1.13-.21.21-.32.07C248.54,420.68,248.69,419.45,248.88,419.05Z" transform="translate(-186.02 -368.36)"/><path class="curve-color" d="M253.33,427.45c-.17-.72-.08,3.56-.18,2.43C253,433.42,254.22,425.58,253.33,427.45Z" transform="translate(-186.02 -368.36)"/><polygon class="curve-color" points="63.28 42.74 63.44 46.18 63.61 43.41 63.28 42.74"/><path class="curve-color" d="M252.1,413.6l-.57-1a3.23,3.23,0,0,1-.14,1.17C251.74,413.94,252.12,414.62,252.1,413.6Z" transform="translate(-186.02 -368.36)"/><path class="curve-color" d="M251.39,413.82c-.18-.06-.35,0-.45.58A.84.84,0,0,0,251.39,413.82Z" transform="translate(-186.02 -368.36)"/><polygon class="curve-color" points="64.04 41.7 64.21 42.42 64.61 42.67 64.04 41.7"/><path class="curve-color" d="M258.13,414.23l.61-1c.06-1.18-.1-1.9-.33-1.43A7.12,7.12,0,0,0,258.13,414.23Z" transform="translate(-186.02 -368.36)"/><path class="curve-color" d="M256.25,404.83a19.82,19.82,0,0,1,.28,2.61v-4.26Z" transform="translate(-186.02 -368.36)"/><path class="curve-color" d="M258.05,403.83c.06-1.18.89-3.4.1-3.13C258.09,401.88,257.48,402.86,258.05,403.83Z" transform="translate(-186.02 -368.36)"/><polygon class="curve-color" points="81.31 40.89 81.15 40.94 81.1 47.93 81.31 40.89"/><path class="curve-color" d="M275.89,392.68c-.72-1.69-.28,4.3-.91,2.2-.21,1.65.52,1.71.3,3.14C275.77,396.29,276,397.28,275.89,392.68Z" transform="translate(-186.02 -368.36)"/><path class="curve-color" d="M275.28,398c-.07.27-.16.6-.25,1.05A5.93,5.93,0,0,0,275.28,398Z" transform="translate(-186.02 -368.36)"/><polygon class="curve-color" points="174 72.62 173.92 74.13 174.44 71.83 174 72.62"/><path class="curve-color" d="M362.54,436.35l-1.4,4.23,1.6-3.71C362.58,437,362.27,437.33,362.54,436.35Z" transform="translate(-186.02 -368.36)"/><path class="curve-color" d="M306,388.8l-.13,1.07c0,1.16.08,1.25.3,1.45Z" transform="translate(-186.02 -368.36)"/><polygon class="curve-color" points="126.41 24.41 126.31 24.3 126.1 28.33 126.41 24.41"/><path class="curve-color" d="M318.68,388.28c-.21-.19-.59.67-.81.48C318.47,388.09,318.14,393.27,318.68,388.28Z" transform="translate(-186.02 -368.36)"/></svg>